<?xml version="1.0" standalone="no"?>
<!DOCTYPE svg PUBLIC "-//W3C//DTD SVG 20010904//EN"
 "http://www.w3.org/TR/2001/REC-SVG-20010904/DTD/svg10.dtd">
<svg version="1.0" xmlns="http://www.w3.org/2000/svg"
 width="450.000000pt" height="600.000000pt" viewBox="0 0 450.000000 600.000000"
 preserveAspectRatio="xMidYMid meet">
<metadata>
Created by potrace 1.12, written by Peter Selinger 2001-2015
</metadata>
<g transform="translate(0.000000,600.000000) scale(1.000000,-1.000000)"
fill="#000000" stroke="none">
<path d="M109 442 l-4 -1 -4 -1 -3 -2 -5 -4 -4 -4 -2 -3 -1 -3 -1 -5 0 -5 1 0
1 0 0 4 0 4 2 4 2 5 3 2 3 3 4 2 5 2 9 0 10 1 5 -2 5 -2 11 -5 12 -6 6 -6 7
-6 1 0 0 1 -4 4 -3 3 -6 4 -6 4 -7 4 -6 3 -7 2 -7 3 -7 0 -6 1 -4 -1z"/>
<path d="M86 409 l0 -4 2 -2 1 -1 -1 1 0 2 -1 4 -1 4 0 -4z"/>
<path d="M180 406 l4 -3 2 -1 2 -1 -5 4 -4 4 -1 0 -1 0 3 -3z"/>
<path d="M314 402 l1 -6 -1 -6 0 -5 -3 -8 -2 -7 -3 -4 -3 -4 -12 -12 -11 -11
-1 -3 -2 -3 0 -4 -1 -3 1 -5 0 -5 3 -4 4 -4 3 -2 4 -2 1 0 2 0 -4 2 -3 2 -3 2
-2 3 -2 3 -1 3 0 5 0 5 2 4 1 3 12 13 13 13 3 5 4 5 1 3 1 4 2 6 1 6 0 5 0 6
-2 3 -2 3 -1 0 -1 0 1 -6z"/>
<path d="M192 397 l2 -2 1 0 0 1 -3 1 -2 2 2 -2z"/>
<path d="M94 396 l1 -2 1 0 0 0 -1 2 -2 2 -1 0 0 0 2 -2z"/>
<path d="M99 392 l1 -2 4 -2 4 -2 6 -1 6 -2 0 0 1 0 4 -1 4 0 7 -4 7 -3 2 -3
2 -3 0 -3 0 -3 -1 -2 0 -2 -11 -11 -11 -12 -2 -2 -2 -2 -3 -6 -2 -5 0 -4 0 -3
4 -4 4 -4 6 0 6 -1 14 -1 14 0 4 -1 4 -1 3 -3 4 -2 2 -4 2 -4 0 -4 1 -3 -1 -6
-2 -5 -7 -15 -6 -15 -2 -5 -1 -5 -1 -9 0 -9 0 -5 0 -5 3 -6 3 -7 6 -6 7 -7 8
-4 9 -5 7 -1 6 -1 6 1 6 1 4 2 4 2 5 5 5 4 3 6 2 5 1 7 1 6 -1 3 0 4 -2 4 -2
4 -7 9 -6 9 -1 5 0 5 2 5 3 6 6 6 5 6 3 2 4 1 3 1 4 1 6 -1 7 -1 8 -4 8 -4 8
-4 9 -5 9 -4 10 -4 6 -1 6 0 7 2 7 2 4 3 5 3 8 9 8 8 2 5 2 5 -1 4 -1 4 -4 4
-4 4 -6 3 -5 3 -14 -1 -13 0 -6 -1 -5 -1 -14 0 -13 0 1 -1 2 -1 9 0 10 0 8 1
9 1 12 0 13 0 5 -2 5 -3 3 -3 3 -2 2 -3 1 -3 0 -2 0 -2 -2 -5 -2 -4 -9 -9 -8
-9 -7 -3 -7 -3 -8 0 -8 0 -9 3 -8 4 -11 6 -11 6 -8 4 -7 3 -8 1 -7 1 -5 -2 -4
-1 -9 -9 -8 -8 -1 -5 -2 -6 0 -5 1 -6 7 -10 7 -10 2 -5 1 -5 0 -7 -1 -6 -3 -6
-2 -5 -5 -4 -5 -5 -4 -2 -3 -1 -10 -1 -10 0 -8 4 -7 4 -6 4 -6 4 -4 5 -3 5 -2
5 -2 6 0 12 1 13 1 2 1 3 2 5 2 6 4 9 5 9 3 8 2 9 0 3 -1 4 -3 5 -3 5 -5 3 -4
2 -6 1 -5 2 -17 0 -16 1 -3 1 -3 2 -1 2 -2 2 0 2 0 3 3 6 3 6 8 8 8 9 4 2 3 2
2 4 2 4 0 2 0 3 -1 3 -1 3 -2 2 -2 2 -8 4 -7 3 -6 1 -5 1 -5 1 -5 1 -5 3 -5 2
1 -1z"/>
</g>
</svg>
