<?xml version="1.0" standalone="no"?>
<!DOCTYPE svg PUBLIC "-//W3C//DTD SVG 20010904//EN"
 "http://www.w3.org/TR/2001/REC-SVG-20010904/DTD/svg10.dtd">
<svg version="1.0" xmlns="http://www.w3.org/2000/svg"
 width="450.000000pt" height="600.000000pt" viewBox="0 0 450.000000 600.000000"
 preserveAspectRatio="xMidYMid meet">
<metadata>
Created by potrace 1.12, written by Peter Selinger 2001-2015
</metadata>
<g transform="translate(0.000000,600.000000) scale(1.000000,-1.000000)"
fill="#000000" stroke="none">
<path d="M301 459 l-3 0 -9 -2 -8 -1 -8 -4 -8 -5 -16 -9 -16 -10 -4 -2 -3 -2
-12 -4 -12 -4 -10 -5 -10 -5 -5 -5 -6 -5 -3 -5 -2 -5 0 -11 0 -10 -6 0 -6 0
-7 -2 -6 -2 -4 -2 -3 -2 -1 1 0 1 -3 3 -2 3 -3 2 -3 2 -6 0 -5 1 -3 -3 -3 -3
-3 2 -4 1 -5 0 -6 -1 -4 -2 -3 -2 -3 -3 -3 -4 0 -6 0 -5 3 -6 3 -5 6 -7 6 -6
0 -3 0 -2 1 0 1 0 2 -2 3 -3 2 0 2 0 0 2 1 1 0 1 0 1 -2 0 -2 -1 -2 3 -2 4 -8
8 -7 9 -2 4 -2 4 0 4 1 4 1 3 2 2 4 2 5 2 3 1 4 0 4 -4 5 -5 1 1 1 2 0 1 0 1
1 3 1 3 3 1 2 0 4 0 3 -1 3 -2 3 -2 1 -4 2 -3 0 -5 -1 -5 -2 -6 -2 -5 -2 -2
-1 -2 -9 -8 -8 -8 1 0 1 0 5 5 6 4 6 7 5 6 2 6 2 5 0 2 0 3 3 2 3 3 6 2 7 2 7
0 7 1 2 -4 2 -4 4 -4 3 -4 3 -1 4 -1 9 -1 9 0 3 -2 3 -2 4 -5 4 -4 2 -5 2 -4
1 -7 1 -6 -1 -4 -1 -4 -3 -4 -2 -3 -2 0 -2 1 -1 -1 -2 -1 -1 -3 -1 -2 -2 1 -1
0 1 -1 1 -1 -7 -11 -7 -10 -3 -8 -3 -8 -1 0 -1 0 -7 9 -7 9 -5 3 -4 3 -4 0 -4
0 -2 -1 -2 -1 -3 -3 -2 -2 -5 -10 -4 -9 -4 -3 -3 -3 -4 -1 -3 0 -5 2 -6 3 -2
3 -2 3 -3 5 -2 6 0 9 0 10 0 7 1 8 -1 0 -1 -1 -1 -4 -1 -4 -1 -5 0 -4 -1 -5 0
-5 1 -5 1 -4 3 -6 3 -6 4 -4 4 -4 2 -2 3 -1 4 0 5 0 4 2 4 2 2 3 3 4 4 8 5 9
3 2 3 3 3 0 3 -1 4 -2 4 -3 6 -7 5 -7 3 -3 2 -3 0 -12 1 -12 1 -6 2 -6 4 -8 3
-7 4 -5 4 -5 7 -5 7 -5 5 -2 6 -2 8 0 9 0 6 2 6 3 5 5 5 6 4 9 5 10 4 15 4 16
1 3 1 4 3 3 3 4 3 1 4 2 3 0 3 0 3 -1 3 -2 2 -2 2 -2 6 -13 6 -13 4 -5 5 -5 3
-1 4 -2 7 0 7 0 5 2 5 3 5 5 6 5 2 6 3 6 1 7 1 8 -1 5 -1 6 -1 4 -2 5 -3 6 -2
7 -1 0 -1 -1 0 2 1 2 -2 0 -1 1 -1 0 0 1 1 0 1 -1 0 1 0 1 -4 7 -4 6 -1 0 0 0
3 -6 3 -5 -1 1 -1 1 -5 8 -5 8 -7 9 -7 9 -14 16 -15 17 -1 1 0 2 4 -4 3 -3 -8
10 -9 11 -4 6 -3 7 0 5 0 4 2 3 1 3 4 2 5 2 6 1 6 0 9 -2 10 -2 5 0 5 0 3 1 3
2 1 2 1 3 0 3 0 3 -1 5 -2 5 -2 4 -2 4 0 1 0 2 -8 6 -7 7 -6 3 -5 2 -5 1 -5 2
-5 0 -4 1 -4 -1z m16 -5 l6 -1 5 -3 6 -3 6 -5 5 -5 3 -5 3 -4 2 -6 1 -6 0 -3
-1 -2 -2 -2 -2 -2 -5 0 -5 0 -6 2 -6 1 -10 0 -9 -1 -4 -1 -3 -2 -3 -2 -3 -1
-2 -5 -2 -4 0 -5 1 -4 3 -6 3 -6 3 -4 3 -4 19 -22 19 -22 9 -13 10 -13 3 -6 4
-6 4 -10 4 -10 2 -7 1 -6 0 -8 -1 -8 -2 -4 -2 -5 -2 -3 -2 -2 -5 -4 -5 -4 -6
-1 -5 -1 -4 1 -3 1 -4 4 -4 4 -3 3 -2 4 -3 8 -4 9 -4 4 -4 5 -6 2 -5 1 -4 -1
-3 0 -4 -2 -3 -2 -3 -3 -3 -2 -1 -4 -2 -3 -5 -18 -4 -17 -4 -9 -4 -8 -6 -5 -5
-5 -4 -2 -4 -2 -7 0 -7 0 -5 2 -5 2 -3 2 -4 3 -5 5 -5 5 -4 5 -4 6 -3 8 -2 8
-1 10 0 10 2 -1 3 0 5 0 6 0 4 2 5 2 4 3 4 3 6 9 7 8 5 11 6 12 7 21 7 21 1 7
0 7 -1 6 -2 6 -3 4 -3 5 -5 4 -4 3 -6 2 -5 2 -8 0 -8 0 -13 -4 -12 -4 -7 -1
-6 -1 -4 0 -4 0 0 5 -1 4 0 3 0 3 2 5 1 5 6 6 5 6 12 6 12 6 5 1 6 2 6 2 7 3
15 9 15 9 5 3 6 4 5 2 4 2 7 2 8 2 8 0 8 0 5 -2z m-82 -83 l6 -2 6 -5 5 -5 2
-5 2 -5 0 -8 0 -8 -3 -12 -4 -12 -2 -9 -3 -8 -4 -10 -5 -9 -5 -7 -5 -7 -4 -5
-3 -4 -6 -3 -6 -4 -5 0 -4 -1 -4 1 -3 1 0 4 1 4 3 7 4 7 7 11 8 12 5 5 5 5 1
2 2 3 1 5 0 5 -1 6 -2 6 -3 5 -2 5 -5 5 -5 4 -5 1 -5 1 -5 0 -4 0 -4 1 -4 1
-4 5 -5 5 0 1 0 2 8 1 9 1 11 3 11 4 4 1 4 1 4 0 5 0 6 -2z m-15 -39 l3 -5 1
-4 1 -4 0 -2 -1 -2 -1 4 -1 5 -4 6 -3 7 1 0 1 0 3 -5z"/>
<path d="M324 348 l1 -2 1 0 0 0 -1 2 -2 2 -1 0 0 0 2 -2z"/>
<path d="M101 301 l-1 -1 0 -1 1 0 1 0 0 1 0 1 -1 1 0 -1z"/>
<path d="M447 103 l0 -2 -2 -1 -1 0 1 1 0 2 0 0 -1 0 -2 -1 -1 -2 1 -1 2 -2
-2 0 -2 -1 1 -1 1 0 0 -4 0 -4 1 -1 2 -1 -3 0 -3 0 0 0 0 1 1 2 1 3 -2 -1 -1
0 0 -1 0 -1 -1 0 -1 1 -2 1 -1 1 -1 -1 -1 0 0 -1 0 -1 1 0 2 0 1 -2 1 -2 -1 0
-1 -1 0 1 -1 2 0 -2 0 -2 -2 0 -2 0 0 1 0 1 -1 0 -2 0 0 -1 0 -2 1 -1 2 -1 -2
0 -2 1 0 -1 1 -1 1 0 2 0 -1 -1 0 -2 -1 1 -1 0 0 -2 1 -2 -2 0 -1 -1 -1 0 0 1
1 0 1 0 -1 3 0 3 -2 -2 -1 -1 0 1 0 1 -2 -1 -2 0 -2 -2 -1 -1 1 1 2 1 0 -1 1
-1 -1 0 -1 0 1 -2 0 -1 -1 1 -1 1 -1 -2 -2 -2 1 -2 0 -1 -1 -2 -2 -1 1 -2 0
-2 -1 0 0 0 -3 0 -2 -1 0 -1 0 -1 2 0 1 0 0 -1 0 -1 -2 0 -1 0 1 -1 1 0 -1 -2
0 -1 -1 0 -1 0 1 1 0 2 -1 -2 -2 -1 -1 0 -1 1 0 1 0 1 1 0 2 -1 0 1 1 1 -2 1
-1 1 -1 -2 -1 -1 -1 2 -1 2 0 -4 0 -3 -1 0 -1 0 0 1 0 1 -2 -1 -1 0 1 -1 1 -1
0 -1 -1 -1 3 0 3 1 0 -1 -1 -1 -2 0 -2 0 0 -1 0 -1 -1 1 -1 1 -3 -1 -3 -1 1
-2 0 -2 -2 -2 -1 -1 0 3 -1 3 -2 0 -2 1 0 -1 0 -1 1 -1 2 -1 0 -2 0 -2 -2 0
-2 0 -1 -3 -2 -2 0 1 0 1 -1 0 -2 0 0 -2 -1 -1 1 -1 2 0 -1 -2 -1 -2 -1 2 -1
1 -2 -2 -3 -3 1 0 0 -1 -1 1 -2 0 0 -1 0 -1 1 -1 1 -1 -1 0 -1 -1 0 2 -1 2 -1
-1 -1 0 0 -2 1 -1 -1 1 -2 0 0 -1 -1 -2 1 0 1 0 0 -1 1 -2 -2 1 -1 0 0 -1 0
-1 -1 2 -1 3 0 -2 0 -2 -2 0 -2 1 0 -2 0 -1 0 -2 -1 -2 -2 0 -1 0 -2 0 -1 1 0
-1 1 0 0 -1 0 -1 -2 1 -2 0 0 -1 1 -1 -2 -1 -2 -2 56 0 56 0 0 51 0 51 -1 0
-1 0 1 1 1 1 0 1 0 1 -1 0 -2 0 0 -3z m1 -6 l1 -1 0 -1 0 0 -1 0 -1 0 0 2 -1
2 1 0 1 0 0 -2z m-18 -18 l1 -1 -1 1 -1 0 0 1 0 1 0 0 1 0 0 -2z m5 -3 l0 -1
-1 1 -1 0 0 1 0 1 1 0 1 0 0 -2z m-4 0 l0 -1 -1 0 -1 0 0 1 0 1 1 0 1 0 0 -1z
m-13 -8 l0 -1 0 0 -1 0 0 1 -1 1 1 0 1 0 0 -1z m-2 -7 l-1 -1 0 1 0 2 1 0 0
-1 0 -1z m-38 -37 l0 -1 -1 1 -1 2 0 1 0 1 1 -2 1 -1 0 -1z m-22 -17 l0 -1 -2
0 -1 0 1 1 0 1 1 0 1 0 0 -1z"/>
<path d="M415 81 l0 -1 2 1 1 0 0 1 0 0 -1 0 -2 0 0 -1z"/>
<path d="M408 64 l0 -1 1 0 1 0 0 1 0 1 -1 0 -1 0 0 -1z"/>
<path d="M404 59 l0 -1 1 1 0 1 0 1 -1 0 0 -2z"/>
<path d="M399 57 l0 -2 2 1 2 1 0 1 0 0 -1 0 -2 -1 0 1 -1 2 0 -3z"/>
<path d="M338 5 l1 0 1 0 0 1 -2 0 -1 0 1 -1z"/>
<path d="M338 3 l0 -1 1 0 0 0 0 1 0 1 -1 0 -1 0 1 -1z"/>
<path d="M114 1 l-4 -1 8 0 8 0 0 1 -1 0 -4 0 -3 1 -4 -1z"/>
</g>
</svg>
