<?xml version="1.0" standalone="no"?>
<!DOCTYPE svg PUBLIC "-//W3C//DTD SVG 20010904//EN"
 "http://www.w3.org/TR/2001/REC-SVG-20010904/DTD/svg10.dtd">
<svg version="1.0" xmlns="http://www.w3.org/2000/svg"
 width="341.000000pt" height="600.000000pt" viewBox="0 0 341.000000 600.000000"
 preserveAspectRatio="xMidYMid meet">
<metadata>
Created by potrace 1.12, written by Peter Selinger 2001-2015
</metadata>
<g transform="translate(0.000000,600.000000) scale(1.000000,-1.000000)"
fill="#000000" stroke="none">
<path d="M136 571 c-7 -1 -19 -3 -22 -5 -6 -3 -11 -7 -11 -9 -1 0 1 -5 3 -10
6 -16 6 -30 2 -34 -2 -1 -4 -5 -5 -7 -2 -3 -8 -10 -13 -16 -12 -13 -18 -21
-26 -35 -8 -15 -10 -22 -10 -34 0 -16 3 -25 8 -28 4 -2 7 -1 16 6 17 11 32 14
41 8 2 -1 5 -4 6 -6 2 -4 2 -6 2 -15 0 -18 -4 -28 -29 -66 -18 -27 -18 -27
-22 -23 -6 6 -9 1 -2 -5 3 -4 3 -4 -2 -14 -4 -6 -6 -10 -6 -10 0 -1 -3 -7 -6
-14 -3 -7 -7 -16 -9 -20 -2 -5 -4 -12 -5 -15 -7 -20 -4 -35 13 -60 4 -6 9 -15
11 -19 1 -5 5 -13 8 -18 4 -9 14 -33 15 -39 2 -6 8 -17 11 -22 11 -16 22 -26
37 -33 1 -1 5 -3 7 -4 2 -2 6 -3 8 -3 1 -1 4 -2 6 -2 7 -3 11 -4 18 -4 12 1
21 6 25 15 2 5 2 7 2 17 0 12 0 13 -3 19 -2 3 -6 10 -10 15 -5 5 -9 11 -10 14
-3 6 -4 15 -3 25 1 10 3 17 7 21 6 8 20 14 22 11 1 -1 1 -1 2 0 0 1 2 2 8 2
20 2 36 6 46 11 11 6 22 17 29 32 4 9 4 9 5 21 0 13 -2 33 -5 46 -2 6 -2 11
-2 32 0 22 0 24 -3 39 -4 22 -8 30 -17 34 -5 2 -7 3 -12 2 -10 -2 -16 -8 -19
-18 -1 -6 -1 -15 -1 -37 0 -12 0 -13 -2 -19 -7 -12 -27 -22 -35 -17 -4 3 -6 6
-8 13 -3 14 1 32 15 68 5 14 17 33 29 47 38 44 49 65 51 94 0 11 -1 17 -6 26
-3 7 -12 16 -18 20 -13 6 -15 7 -16 7 -1 0 -4 1 -6 2 -3 0 -6 2 -7 2 -2 0 -8
2 -12 3 -14 5 -24 6 -47 6 -7 0 -14 1 -17 1 -8 1 -23 3 -26 2z m13 -4 c3 -1
16 -1 29 -2 24 -1 32 -2 56 -9 19 -5 29 -10 38 -18 12 -10 16 -21 15 -38 -1
-12 -4 -23 -10 -35 -8 -15 -13 -23 -36 -51 -20 -23 -29 -40 -39 -66 -12 -34
-14 -53 -5 -68 3 -5 9 -8 15 -7 11 2 26 13 31 23 2 4 3 6 3 28 0 18 0 23 1 28
4 11 8 14 18 14 11 0 15 -6 20 -29 3 -13 3 -16 4 -42 0 -20 1 -31 2 -35 2 -9
5 -31 5 -37 0 -10 -2 -17 -7 -27 -5 -11 -14 -21 -23 -26 -9 -5 -27 -10 -49
-12 -14 -1 -22 -4 -28 -10 -8 -8 -11 -17 -11 -34 0 -15 1 -20 8 -29 8 -11 13
-17 15 -23 3 -5 3 -6 3 -15 -1 -7 -1 -10 -3 -14 -7 -13 -25 -16 -46 -7 -3 1
-9 5 -15 8 -20 12 -34 27 -42 48 -6 18 -13 35 -17 43 -2 4 -6 12 -8 17 -2 5
-6 13 -10 19 -15 22 -19 36 -16 50 5 16 12 34 25 58 9 19 7 18 18 9 6 -4 10
-8 11 -9 0 -1 3 1 3 3 0 0 -5 5 -10 10 -11 8 -11 8 -9 12 5 8 16 25 24 37 17
25 24 44 22 61 -2 15 -13 24 -25 22 -6 -1 -24 -8 -28 -11 -1 -1 -3 -2 -4 -2 0
0 -2 -1 -4 -2 -5 -2 -8 -1 -10 5 -2 3 -2 6 -2 15 0 11 0 13 2 19 4 10 14 27
18 33 7 9 17 19 19 19 3 0 9 7 12 13 8 15 8 27 1 46 -2 4 -3 8 -3 9 1 2 13 7
20 8 8 2 14 2 22 1z"/>
<path d="M339 129 c0 -1 0 -1 1 -1 1 0 1 0 1 1 -1 1 -1 1 -2 1 0 0 0 0 0 -1z"/>
<path d="M340 126 c0 -1 0 -2 0 -3 0 -2 0 -2 -1 -1 -1 2 -2 1 -2 -2 1 -4 0 -5
-2 -2 -2 1 -2 1 -1 -1 1 -2 1 -2 -1 -3 -2 -1 -2 -1 0 -1 2 1 3 0 4 -1 1 -1 1
-1 0 -1 -1 1 -1 0 -1 -1 0 -1 -1 -2 -2 -2 -1 0 -2 0 -3 0 0 -1 -1 0 0 1 0 2
-2 4 -3 2 0 -1 0 -1 1 -1 0 1 1 1 1 0 0 -1 0 -1 -1 -1 -1 0 -1 -3 0 -3 1 -1
-1 -1 -3 -1 -4 0 -4 0 -4 -4 0 -2 0 -4 -1 -4 0 0 -1 0 -2 -1 -2 0 -4 0 -5 0
-2 0 -5 -2 -6 -3 -2 -2 -4 -3 -4 -3 -1 0 -2 -1 -2 -2 0 -1 1 -1 2 0 1 2 2 2 4
1 1 -1 2 -2 2 -2 0 -1 -1 0 -3 1 -2 1 -2 1 -2 0 1 -1 0 -2 -2 -2 -1 0 -2 1 -2
1 0 0 -1 1 -2 1 -2 0 -2 -1 -2 -3 1 -3 -1 -4 -4 -2 -2 1 -2 1 -2 -2 0 -2 0 -2
-2 -2 -2 0 -3 0 -4 -1 -2 -2 -2 -2 0 -2 1 0 2 0 2 -1 0 -1 -1 -1 -2 -1 -1 0
-1 0 0 -1 1 -1 1 -1 0 -1 -1 0 -2 1 -3 2 -1 1 -3 2 -3 1 0 0 0 -1 1 -1 1 -1 2
-2 2 -4 1 -2 1 -2 -1 -1 -2 1 -2 1 -3 -1 -2 -2 -2 -3 0 -4 1 0 1 0 1 1 -1 1
-1 1 0 0 1 0 1 -1 -1 -3 -2 -2 -4 -3 -2 0 1 1 1 1 -2 3 -2 1 -3 1 -3 0 0 -1 1
-1 2 -2 1 0 2 -1 2 -3 0 -1 -1 -2 -1 -2 -1 0 -1 -1 -1 -3 1 -3 1 -3 -3 -3 -6
0 -8 0 -9 1 0 1 -1 1 -2 1 -2 0 -2 0 -1 -1 1 -1 2 -4 1 -4 0 1 -1 0 -1 -1 -1
-1 0 -2 1 -3 1 0 1 0 -1 -1 -1 -1 -3 -1 -4 -1 0 1 -1 0 -2 0 -1 -2 1 -2 3 -1
2 1 3 1 3 0 0 -1 1 -1 2 -1 1 0 1 0 -1 -1 -1 -1 -2 -2 -2 -3 0 0 0 -1 1 -1 1
1 1 1 1 0 0 -1 -1 -1 -2 -1 -1 0 -2 0 -2 -1 0 -1 1 -1 1 -1 1 0 1 0 1 -1 -1 0
-2 0 -2 1 -2 1 -5 1 -8 -1 -1 0 -1 -1 0 -1 0 -1 1 -2 1 -2 0 -1 -1 0 -2 1 -3
2 -3 2 -5 0 -2 -2 -4 -3 -3 -1 1 0 0 1 -1 1 -1 0 -2 -1 -3 -2 -1 -2 -1 -2 0
-1 2 3 3 2 3 -1 0 -2 0 -2 4 -3 5 0 5 1 0 2 -3 1 -3 1 0 2 4 1 4 1 5 -3 1 -3
1 -3 -1 -2 -1 0 -2 0 -2 -1 0 -1 0 -1 -1 -1 -1 0 -1 1 0 1 0 3 -1 2 -3 0 -1
-1 -3 -2 -4 -2 -4 2 -4 2 -2 0 1 -1 2 -2 1 -2 0 -1 -1 0 -1 1 -1 0 -1 1 -2 1
-2 0 0 -3 3 -4 2 -1 3 -2 3 -2 0 -1 -2 -1 -3 0 0 1 -1 1 -1 0 -1 0 -1 -1 0 -1
0 -1 0 -1 -1 0 -2 1 -7 1 -8 0 -1 -1 -1 -1 -2 0 -1 1 -2 2 -2 2 -1 0 0 -1 0
-2 2 -1 2 -2 2 -5 0 0 0 -1 1 -1 1 0 2 0 2 -1 0 -2 0 -2 -2 -2 -2 1 -3 1 -2 0
0 -1 0 -2 -1 -2 -1 0 -1 0 -1 1 0 1 -1 1 -3 1 -1 0 -2 0 -2 -1 1 -2 8 -2 9 -1
0 1 4 1 4 0 0 -1 20 -1 57 -1 l57 0 0 64 c0 34 0 63 0 63 -1 0 -1 -1 -1 -1z
m-13 -22 c1 0 1 0 0 -1 -1 -1 -1 -1 1 -1 2 -1 3 -5 1 -6 -1 0 -1 1 -1 3 0 1
-3 2 -4 1 0 -1 0 -1 1 -1 0 1 1 1 1 0 0 0 0 -2 1 -2 0 -2 0 -2 -2 -1 -3 0 -3
0 -3 -2 0 -1 1 -2 2 -2 1 0 3 0 3 -1 0 -1 -4 -2 -6 0 -1 1 -1 1 0 1 2 0 0 2
-2 2 -2 0 -2 0 1 1 3 2 4 5 3 8 -1 2 -1 2 0 1 1 0 3 -1 4 0z m-13 -12 c-2 -1
-3 0 -2 1 0 2 0 2 1 1 1 -1 1 -2 1 -2z m5 -3 c1 0 1 0 1 -1 -2 -1 -4 1 -3 3 0
3 0 3 1 0 0 -1 1 -2 1 -2z m-17 -6 c0 -1 -1 -1 -1 -1 -1 -1 -2 0 -2 1 0 0 1 1
2 0 0 0 1 0 1 0z m-20 -21 c0 -1 0 -1 -1 -1 -1 0 -1 0 -1 1 0 1 0 1 0 1 1 0 1
0 2 -1z m-2 -10 c-1 0 -1 0 -2 0 -1 1 -1 1 0 1 1 0 2 0 2 -1z m-11 -2 c0 -1
-1 -1 -1 -1 -1 0 -2 0 -1 1 0 1 0 1 1 1 0 0 0 0 1 -1z m-4 -1 c0 -1 1 -2 1 -2
1 0 1 0 0 -1 -1 -1 -2 -2 -2 -1 -2 0 -3 4 -2 4 1 2 3 1 3 0z m-13 -18 c1 0 1
-1 0 -1 0 -1 -3 0 -3 1 0 1 3 1 3 0z m-1 -8 c0 -1 -1 0 -2 1 -2 0 -3 2 -3 2 0
1 5 -2 5 -3z m-25 -12 c0 -1 0 -1 -1 -1 -1 -1 -1 -1 -1 0 0 1 0 1 1 1 1 0 1 0
1 0z m2 -2 c-1 -1 -2 -2 -2 -2 -1 0 0 1 1 2 0 1 1 2 2 2 0 0 -1 -1 -1 -2z m1
-4 c-3 -2 -4 -1 -1 2 1 1 2 1 2 1 1 -1 0 -2 -1 -3z"/>
<path d="M332 121 c-1 -1 -1 -1 0 0 1 0 2 1 2 1 0 1 -1 1 -2 -1z"/>
<path d="M304 93 c0 0 1 -1 2 -1 0 0 1 0 1 1 0 0 -1 1 -1 1 -1 1 -2 0 -2 -1z"/>
<path d="M296 90 c1 -1 2 -1 2 -1 1 0 0 1 -1 2 -2 1 -2 1 -1 -1z"/>
<path d="M287 83 c0 -1 1 -2 1 -2 1 0 1 1 0 2 0 0 -1 1 -1 1 -1 0 -1 -1 0 -1z"/>
<path d="M281 81 c0 -1 0 -1 1 -1 1 0 1 0 1 1 -1 1 -1 1 -2 1 0 0 0 0 0 -1z"/>
<path d="M271 67 c1 0 1 0 2 0 0 1 -1 1 -2 1 -1 0 -1 0 0 -1z"/>
<path d="M269 59 c1 0 1 -2 2 -2 1 -1 1 -1 0 0 -1 1 -1 2 0 2 1 1 1 1 0 1 -1
1 -2 0 -2 -1z"/>
<path d="M264 56 c-2 -1 -1 -2 1 -1 1 0 2 1 2 1 0 1 -2 1 -3 0z"/>
<path d="M266 54 c-1 -1 -1 -1 0 -1 1 0 2 0 3 1 0 1 -1 1 -3 0z"/>
<path d="M249 36 c0 0 1 -1 1 0 1 0 1 1 0 1 -1 1 -2 0 -1 -1z"/>
<path d="M228 16 c-1 -1 -1 -2 0 -2 0 0 1 1 1 2 1 1 0 2 -1 0z"/>
<path d="M223 15 c0 -1 1 -1 1 0 1 0 1 1 -1 1 0 0 -1 0 0 -1z"/>
<path d="M217 8 c1 -1 0 -2 0 -3 -1 -1 -1 -1 0 -1 1 0 2 3 1 4 -1 0 -1 0 -1 0z"/>
</g>
</svg>
