<?xml version="1.0" standalone="no"?>
<!DOCTYPE svg PUBLIC "-//W3C//DTD SVG 20010904//EN"
 "http://www.w3.org/TR/2001/REC-SVG-20010904/DTD/svg10.dtd">
<svg version="1.0" xmlns="http://www.w3.org/2000/svg"
 width="450.000000pt" height="600.000000pt" viewBox="0 0 450.000000 600.000000"
 preserveAspectRatio="xMidYMid meet">
<metadata>
Created by potrace 1.12, written by Peter Selinger 2001-2015
</metadata>
<g transform="translate(0.000000,600.000000) scale(1.000000,-1.000000)"
fill="#000000" stroke="none">
<path d="M131 413 l-2 0 -2 -2 -2 -1 0 1 -1 0 0 -1 0 -1 1 0 1 0 1 0 1 -1 4 0
5 -1 15 -1 15 0 12 -1 12 -1 12 -2 12 -1 8 -1 8 0 7 -2 8 -1 11 -4 11 -3 6 -4
5 -3 10 -7 9 -7 11 -11 10 -10 4 -7 5 -6 4 -9 4 -8 3 -8 2 -7 1 -2 0 -1 1 -3
0 -3 1 -7 2 -6 0 -7 1 -6 0 -6 1 -6 -1 -15 -1 -14 -2 -11 -2 -10 -3 -8 -3 -7
-6 -10 -5 -10 -4 -5 -3 -5 0 -1 0 -1 -1 0 -1 1 -2 -3 -3 -3 0 -1 1 -1 -2 -2
-2 -1 2 2 2 2 -10 -8 -10 -9 0 -1 0 -1 -1 0 -1 1 -3 -3 -3 -2 0 -1 0 -2 -2 0
-1 -1 1 2 1 2 -2 -2 -2 -2 1 -1 0 -1 -1 0 -1 1 -3 -3 -3 -2 1 0 0 0 -1 -1 -1
-1 -2 -1 -2 0 -2 -2 -1 -2 -5 -2 -4 -2 0 0 0 1 -5 -2 -5 -3 0 -1 -1 -1 -2 0
-2 0 -2 -2 -1 -1 -1 0 0 0 -1 -1 0 -1 1 1 1 0 0 -1 -1 -1 -2 0 -1 0 0 1 0 1
-2 -1 -1 0 1 -1 1 -1 -2 0 -1 -1 -1 1 -2 1 -1 -1 0 -1 -10 -3 -10 -2 1 -1 1
-1 -2 0 -3 -1 1 1 0 1 -1 0 -1 0 -1 -1 0 -1 -3 0 -2 0 -8 0 -8 -1 -10 0 -10
-1 -7 -1 -6 0 -6 -1 -6 -1 -3 0 -3 0 -1 -1 -1 -1 -7 0 -6 0 -4 0 -3 1 0 0 -1
1 4 0 4 1 0 8 0 8 2 21 2 22 0 10 1 11 1 14 1 15 -1 4 -1 4 1 1 1 2 0 34 1 34
2 20 1 21 1 11 1 12 1 8 1 8 0 9 1 9 1 19 0 19 -3 0 -3 0 0 2 -1 1 -1 0 -1 -1
-1 -6 -1 -6 -1 -16 0 -15 0 -5 -1 -4 -1 -12 -1 -11 -1 -8 0 -8 1 1 1 0 0 -2
-1 -1 -1 -3 0 -2 -1 -10 0 -10 -2 -5 -1 -4 0 -5 1 -5 -1 -8 -1 -7 -1 -15 0
-15 0 -12 -1 -12 2 0 2 0 1 0 2 0 1 -1 1 -2 0 -1 -1 -1 -2 0 -2 0 -1 -1 -1 -1
-1 -4 -1 -4 1 -1 1 -1 -1 -5 0 -4 -2 -4 -1 -4 -1 -15 -1 -15 0 -5 -1 -4 0 -5
-1 -4 -1 -11 -1 -11 0 -12 1 -11 -1 1 -1 0 0 -2 0 -2 1 1 1 1 1 0 0 -1 -1 -1
-1 -2 1 0 0 -1 -1 -2 -2 -3 0 -2 0 -1 2 -3 2 -2 1 0 2 1 2 2 2 1 0 -2 0 -1 1
1 2 2 7 2 8 2 6 3 6 3 7 0 8 1 0 -1 0 -1 1 1 1 1 3 -1 3 0 1 1 0 1 1 0 2 0 -2
-1 -1 -1 1 0 1 0 1 1 1 1 8 0 8 1 10 1 10 1 6 1 6 1 2 0 2 1 2 1 3 1 3 1 2 0
5 2 5 3 2 0 3 1 2 1 2 1 7 3 7 3 10 6 11 6 15 13 16 13 9 10 10 11 4 6 4 6 6
12 6 12 3 11 3 12 1 9 1 9 0 19 0 20 -2 13 -3 14 -3 9 -3 10 -6 12 -6 12 -5 7
-5 7 -9 8 -9 9 -8 6 -8 7 -8 4 -8 5 -8 3 -8 3 -10 2 -10 3 -15 2 -15 2 -17 2
-16 2 -23 1 -22 0 -2 -1z m91 -320 l0 -1 -2 0 -3 -1 1 1 0 1 2 0 2 0 0 0z
m-118 -13 l0 -1 -1 0 -1 -1 0 1 0 1 1 0 1 0 0 0z m-1 -6 l0 -2 -1 0 0 0 0 2 0
1 1 0 1 0 -1 -1z"/>
</g>
</svg>
