<?xml version="1.0" standalone="no"?>
<!DOCTYPE svg PUBLIC "-//W3C//DTD SVG 20010904//EN"
 "http://www.w3.org/TR/2001/REC-SVG-20010904/DTD/svg10.dtd">
<svg version="1.0" xmlns="http://www.w3.org/2000/svg"
 width="800.000000pt" height="600.000000pt" viewBox="0 0 800.000000 600.000000"
 preserveAspectRatio="xMidYMid meet">
<metadata>
Created by potrace 1.12, written by Peter Selinger 2001-2015
</metadata>
<g transform="translate(0.000000,600.000000) scale(1.000000,-1.000000)"
fill="#000000" stroke="none">
<path d="M484 540 l-7 -2 -4 -2 -4 -2 -4 -3 -4 -3 -4 -3 -3 -3 -5 -9 -5 -9 -3
-8 -3 -8 -2 -9 -2 -8 -1 -11 0 -10 -1 -22 0 -21 -1 -7 0 -6 0 -3 -1 -2 1 -1 1
-1 -1 -3 -1 -3 1 -1 2 -1 -2 -1 -1 -1 1 -2 1 -2 -2 0 -2 -1 -1 -12 -2 -11 -1
-4 -1 -3 -1 -5 -1 -5 0 -1 0 -1 -1 -1 -1 0 0 -2 0 -2 -1 0 -1 0 -2 -4 -3 -4
-4 -3 -3 -3 -4 0 -3 -1 -4 0 -4 0 -5 3 -5 2 -4 6 -4 6 -4 9 -4 9 -2 8 -2 8 -1
10 0 11 2 7 1 7 2 5 2 6 6 15 6 15 3 7 4 8 1 4 2 5 -1 9 0 9 -3 5 -2 6 -3 4
-3 3 -4 3 -4 2 -6 2 -5 1 -11 0 -10 0 -9 9 -9 9 -5 2 -4 3 -4 1 -4 0 -5 -1 -5
-2 -3 -3 -4 -3 -2 -5 -3 -5 0 -5 -1 -4 1 -7 1 -8 6 -9 6 -8 3 -6 3 -5 0 -5 1
-5 -1 -5 -1 -4 -4 -6 -3 -6 -8 -10 -8 -9 -4 -7 -5 -7 -3 -7 -3 -7 -4 -9 -4 -8
-1 -3 -2 -3 -2 -6 -3 -5 -2 -6 -2 -5 -2 -6 -2 -6 -1 -4 -2 -3 -3 -9 -3 -8 -1
-6 -2 -5 -1 -7 -2 -6 -1 -4 -1 -4 -2 -12 -2 -12 -2 -8 -2 -8 -3 -13 -2 -13 -1
-7 -1 -6 -2 -13 -1 -12 0 -14 1 -14 1 -8 2 -7 2 -6 2 -6 8 -8 8 -8 4 -2 4 -1
7 0 8 0 5 2 6 3 4 4 4 3 4 6 5 6 3 7 4 7 2 8 3 8 4 16 3 17 3 8 2 9 3 7 4 7 5
6 5 6 5 3 6 3 4 1 4 0 -3 1 -3 1 4 0 5 -1 3 -1 3 -2 4 -4 5 -5 3 -7 3 -6 2 -7
1 -6 1 -6 0 -6 1 -2 0 -1 1 -9 1 -9 2 -7 2 -7 3 -6 2 -5 3 -5 3 -4 1 1 1 0 0
-1 -1 -1 4 -4 5 -4 8 -4 8 -4 5 -2 6 -1 7 0 7 0 5 2 6 1 4 3 5 2 4 4 4 5 2 3
2 4 2 6 2 6 1 24 1 24 1 4 1 5 2 2 1 3 4 2 4 2 -2 0 -1 0 0 1 0 1 1 0 1 0 2 1
2 1 0 -1 1 -2 -2 0 -2 -1 3 0 4 0 0 1 -1 1 3 0 3 0 6 -1 7 -1 1 -1 1 -1 3 0 3
0 10 -4 10 -3 0 0 0 0 3 -2 4 -1 1 0 0 1 2 -1 3 -1 1 -1 1 0 2 -1 3 -1 3 1 3
0 0 -1 0 -1 8 0 7 0 1 -1 1 -1 2 0 2 1 1 1 1 2 2 -2 2 -1 2 0 3 0 0 2 1 1 1
-1 1 -1 3 0 4 1 3 1 4 1 7 2 8 2 6 3 6 4 6 4 6 5 7 7 7 8 7 9 6 10 7 14 6 15
3 11 4 11 2 14 2 14 0 18 0 19 -2 9 -2 9 -4 7 -3 7 -4 5 -5 5 -6 3 -7 3 -8 1
-8 0 -1 0 -1 0 -5 -1 -4 -1 -3 -2 -2 -1 -4 -4 -4 -4 0 -1 -1 -2 -1 0 -1 1 -1
-2 -1 -2 -1 -4 0 -3 -1 -3 -1 -2 -2 -13 -2 -13 -2 -4 -1 -4 0 -2 0 -1 -5 -10
-4 -9 -3 -4 -3 -4 -4 -4 -3 -3 -9 -4 -8 -4 -9 -1 -9 -1 -7 2 -7 1 -7 4 -7 3
-6 4 -5 4 -6 6 -7 7 0 1 0 1 -2 2 -3 2 0 1 0 1 -1 2 -1 3 -1 0 -1 1 0 2 -1 3
-2 4 -2 5 -1 5 -2 6 0 6 0 6 1 6 1 7 4 6 3 7 5 7 5 7 3 3 4 3 -3 -1 -2 0 -2
-2 -1 -2 -2 -1 -1 -2 0 -1 0 -1 -2 -1 -2 -2 -1 0 -1 0 -2 -4 -2 -3 -3 -7 -3
-6 -2 -3 -1 -3 0 -1 1 0 -1 -2 -1 -1 0 -5 0 -5 0 -2 0 -2 1 -6 1 -5 1 -3 1 -2
1 -2 1 -2 0 -1 0 -2 3 -5 2 -5 0 -2 1 -1 2 -4 3 -5 1 0 1 0 0 -1 0 -1 2 -2 1
-1 3 -4 3 -4 1 0 2 0 4 -4 5 -4 2 -2 2 -1 7 -4 7 -3 5 -1 5 -2 10 1 11 1 5 1
5 1 7 4 8 3 7 8 7 7 3 5 3 5 3 6 2 6 2 8 2 7 1 5 1 6 1 9 1 9 0 1 1 2 2 7 2 7
5 3 5 3 6 0 7 0 6 0 6 -1 0 -1 0 -1 5 -2 5 -3 2 -2 3 -3 0 -1 0 -1 1 0 1 0 1
-3 2 -3 2 -6 2 -5 0 -1 0 0 -1 1 -1 0 1 -1 1 -2 -1 0 -2 -1 0 -1 0 -1 1 1 2 0
0 -3 0 -3 1 -1 1 -1 0 -3 1 -2 -1 1 -1 0 0 -3 0 -3 2 -2 2 -1 -2 0 -2 0 0 -7
0 -6 -1 -6 0 -5 -1 -4 0 -4 -1 -7 -1 -7 -1 -2 0 -1 -1 -5 0 -4 0 -2 0 -1 -1 0
-1 0 0 -1 0 -1 -2 -4 -2 -4 0 -2 0 -1 -2 -2 -2 -1 1 -2 0 -2 -1 0 -1 1 -1 -4
-1 -3 -3 -3 -2 -3 0 -2 0 -1 -2 -3 -2 -2 -1 0 -1 1 0 -2 0 -2 -1 0 -1 1 -3 -4
-3 -4 0 0 0 -1 -2 -3 -2 -2 -5 -5 -5 -5 -1 0 -2 0 0 -2 -1 -2 -2 0 -1 0 -1 -2
-1 -2 -5 -2 -4 -2 -1 -1 0 -1 -3 0 -2 0 -10 -4 -11 -3 -10 0 -9 -1 -10 2 -10
1 -3 1 -2 0 -4 1 -4 0 -4 2 -4 2 -6 1 -6 1 -8 3 -8 2 0 1 0 1 -2 -1 -2 -1 0 1
-1 1 -11 0 -12 1 -2 -2 -2 -1 -4 -1 -3 -1 -4 -4 -4 -4 -2 -5 -2 -4 -1 -7 -1
-7 0 -11 0 -11 -1 -10 -1 -9 -2 -4 -1 -4 -3 -4 -2 -4 -7 -3 -7 -4 -6 0 -6 0
-5 2 -5 1 -4 2 -4 2 -5 4 -5 3 -4 5 -3 6 -2 6 -2 6 -2 6 -1 7 -2 13 -1 13 -3
9 -2 9 -4 6 -3 7 -6 5 -5 5 -4 2 -4 2 -1 0 -1 0 1 -1 0 -1 -2 0 -3 0 -1 2 0 1
-2 0 -2 0 1 -2 0 -1 -2 1 -2 1 -1 -1 -1 0 -4 -1 -3 -1 0 -1 0 -1 -3 0 -2 -1
-5 -4 -4 -4 -1 0 -1 0 -5 -5 -5 -6 -4 -5 -3 -6 -3 -9 -3 -8 -5 -19 -4 -19 -1
-5 -2 -5 -2 -5 -2 -4 -2 -6 -3 -5 -5 -5 -4 -5 -3 -1 -2 -2 -4 0 -3 -1 -5 2 -6
3 -5 5 -4 5 -2 3 -2 4 -1 3 -2 4 -1 5 -1 6 0 15 0 16 1 12 2 13 4 19 4 20 1 9
2 10 3 12 2 12 2 8 2 8 4 12 5 13 3 10 4 10 5 13 5 13 6 10 5 11 5 7 5 8 8 9
7 9 4 6 5 7 1 4 2 4 0 6 0 7 -1 4 -1 4 -3 5 -3 6 -5 6 -6 7 -1 3 -2 3 -1 7 0
8 2 4 2 5 1 0 1 0 2 -1 3 -1 5 2 5 2 3 -1 3 -2 9 -8 9 -8 4 -3 4 -2 4 -1 3 0
7 1 7 1 4 -1 4 -2 0 -1 0 -1 1 0 2 0 2 -3 2 -2 2 -4 2 -4 1 -4 1 -4 0 -3 0 -3
-2 -9 -2 -9 0 0 -1 1 -1 -3 -2 -2 -2 -6 -1 -5 -1 -1 -1 -1 0 0 1 0 -1 -2 -2
-1 -3 -9 -3 -9 -2 -4 -2 -3 -1 -9 -2 -9 -1 -5 -1 -5 1 -7 0 -7 0 -2 0 -1 2 0
1 -1 -1 -2 -1 -2 1 0 2 0 1 -2 0 -1 -1 -1 -1 -2 2 -3 2 -4 -1 0 0 0 1 -1 1 -2
0 -2 -1 -1 1 -2 2 -1 1 -4 1 -3 2 -3 3 -3 3 -5 4 -4 2 0 1 0 0 -1 0 -1 3 -1 4
-2 3 -1 4 -1 6 1 6 0 4 2 5 2 2 3 3 2 4 5 4 6 0 2 1 3 1 1 1 1 2 8 2 9 2 11 2
11 1 14 1 14 1 7 1 8 0 21 0 22 1 11 1 12 2 7 2 8 1 4 2 4 3 7 3 7 5 6 4 7 6
3 6 4 8 2 7 1 9 -1 9 -1 4 -1 5 -2 5 -3 5 -3 0 -1 0 -1 3 -3 2 -3 0 -2 0 -1 2
-1 3 -1 0 -3 1 -3 -1 -1 0 -2 2 -1 1 -1 -1 -1 -1 -1 1 -2 2 -2 -1 0 -1 -1 1
-1 1 0 0 -7 -1 -7 0 -1 -1 0 0 -2 0 -1 2 1 2 0 -3 -2 -2 -1 -1 -5 -2 -4 1 -1
1 0 0 -2 0 -2 -4 -4 -4 -4 1 2 1 3 -2 -3 -3 -2 0 -1 0 -1 1 1 2 0 0 -1 0 -2
-5 -5 -5 -5 0 -1 0 -1 -1 0 -1 0 -3 -4 -3 -3 0 -1 1 -1 1 3 2 3 0 -1 0 -1 7 7
8 8 4 6 5 7 0 2 1 2 1 0 1 0 0 1 0 1 3 7 2 6 0 12 -1 12 -3 7 -2 7 -3 4 -2 4
-3 3 -2 3 -2 2 -2 2 -5 2 -5 3 -4 1 -3 1 -11 1 -10 0 -7 -1z m-185 -18 l0 -1
-1 0 -1 0 0 1 0 1 0 0 1 0 1 -1z m396 -159 l-1 -1 0 2 0 3 1 -2 0 -1 0 -1z
m-369 -137 l-3 -1 -2 0 -2 0 -6 -5 -6 -4 -4 -5 -5 -5 0 0 -1 0 1 2 2 3 5 4 4
5 3 2 4 1 0 1 1 1 3 1 4 2 2 0 3 0 -3 -2z m-24 -10 l-1 -2 -1 0 0 1 1 2 1 1 1
0 0 -1 -1 -1z m-4 -5 l-1 -1 0 1 0 1 1 0 0 1 1 -1 0 0 -1 -1z m172 -10 l-2 -3
-1 0 -1 0 0 2 1 3 1 1 2 2 2 -2 1 -1 -3 -2z m8 3 l-1 -1 -1 0 -1 0 1 1 2 1 0
0 0 0 0 -1z m-13 -8 l0 -2 -1 0 -1 0 1 2 0 1 1 0 1 0 -1 -1z m-97 -36 l1 -2
-1 0 -1 0 0 2 0 1 0 0 1 0 0 -1z"/>
<path d="M535 459 l-1 0 0 -1 0 -1 1 1 1 1 0 0 -1 1 0 -1z"/>
<path d="M519 439 l-1 -1 1 1 2 0 0 1 0 1 0 0 -1 0 -1 -2z"/>
</g>
</svg>
