<?xml version="1.0" standalone="no"?>
<!DOCTYPE svg PUBLIC "-//W3C//DTD SVG 20010904//EN"
 "http://www.w3.org/TR/2001/REC-SVG-20010904/DTD/svg10.dtd">
<svg version="1.0" xmlns="http://www.w3.org/2000/svg"
 width="450.000000pt" height="600.000000pt" viewBox="0 0 450.000000 600.000000"
 preserveAspectRatio="xMidYMid meet">
<metadata>
Created by potrace 1.12, written by Peter Selinger 2001-2015
</metadata>
<g transform="translate(0.000000,600.000000) scale(1.000000,-1.000000)"
fill="#000000" stroke="none">
<path d="M21 595 l0 -3 1 0 1 0 0 -1 0 -1 -1 0 -1 1 0 -1 -1 -1 1 -1 1 0 -1
-1 -1 -1 1 -1 1 -2 -2 0 -1 0 1 -1 2 -1 -1 -3 0 -2 1 1 1 2 0 -2 0 -1 1 0 1 0
0 4 0 4 -1 0 -1 1 1 0 1 0 -1 3 0 4 0 2 -1 3 -1 1 -1 0 0 -3z"/>
<path d="M447 546 l-2 -42 -3 -53 -3 -52 -1 -18 -1 -18 -3 -49 -3 -48 0 -5 -1
-4 -1 -13 0 -12 -1 -1 -1 0 1 -4 0 -4 -1 0 -2 0 0 0 0 -1 1 -3 1 -3 -1 0 0 1
-2 -2 -1 -1 2 -1 2 0 -2 -2 -2 -1 0 -2 -1 -2 1 0 2 1 1 -1 2 -1 -2 0 -2 1 0
-1 1 -2 -1 0 0 0 -2 2 -1 1 -1 -1 -1 -1 1 -1 1 -1 -3 -2 -2 -3 -2 0 -1 0 0 -1
0 -1 1 0 1 -1 0 -2 0 -2 -2 0 -1 -1 1 0 2 0 0 -1 0 -1 -2 0 -2 0 0 1 0 1 -3
-1 -2 -1 0 -1 0 -1 1 0 1 1 0 -1 1 -1 -1 0 -2 0 1 -1 0 -2 -1 -1 -2 0 0 -2 -1
-1 2 1 1 0 -1 -1 -1 -2 -1 1 -1 0 0 -1 0 -2 -1 0 0 1 -2 -2 -1 -1 2 1 3 0 -2
-2 -2 -2 -2 -3 -1 -2 1 2 0 2 -1 0 -1 1 0 -1 0 -1 0 -1 0 0 -2 -1 -2 -1 2 0 2
0 0 -1 -1 -1 2 0 2 0 -2 -1 -1 -1 -3 2 -2 1 -1 0 0 0 1 -1 2 -1 0 -2 0 -2 -1
1 0 2 -1 0 -1 0 0 -1 0 -1 -1 -1 -2 -2 1 -1 2 -2 -1 -1 0 -1 -2 0 -2 -1 2 -1
2 -2 -1 0 -1 -1 0 1 0 1 -1 -1 -1 -1 -1 0 -1 0 1 1 2 1 -2 0 -2 0 -1 -2 -1 -2
-2 -4 -2 -4 -1 0 -1 1 1 -2 0 -2 -2 0 -1 0 1 0 1 -1 2 0 3 -1 0 -1 0 -1 -1 1
-2 0 0 -1 0 -1 -1 0 -2 1 -1 -2 -1 -1 0 2 1 2 -2 1 -1 0 1 -1 2 -1 -2 0 -2 0
1 -2 2 -3 -2 0 -1 -1 -1 0 0 0 1 1 1 1 -1 0 -1 1 0 -1 0 -1 -1 1 -1 0 0 -1 1
-1 2 -1 3 -1 0 -2 0 -2 -1 -1 -1 0 0 1 0 2 0 0 0 1 -2 0 -2 0 -1 2 -1 2 0 -1
-1 -2 1 0 1 0 -1 -1 0 -1 0 0 1 1 2 -1 2 -1 0 -1 0 -1 -2 0 -3 0 1 -2 0 -1 2
1 2 0 0 -1 0 -2 -2 0 -2 -1 -2 2 -1 1 1 0 2 0 -2 1 -1 1 0 1 1 1 -5 0 -5 0 -1
-4 -2 -3 2 0 1 -1 0 -1 0 -1 -2 2 -2 2 -2 0 -1 0 1 -2 0 -2 -1 0 -1 0 0 1 0 1
-2 0 -1 -1 0 -2 0 -3 -3 1 -3 1 -1 0 0 0 1 -2 0 -2 -2 0 -1 0 1 -1 0 -1 -1 1
-1 2 -2 -2 -2 -2 1 0 2 0 0 0 1 0 0 -1 0 -1 -2 0 -1 0 -1 0 -1 0 1 -3 0 -2 -1
0 0 0 -2 2 -1 1 0 -2 1 -3 -2 1 -1 0 0 -1 1 -1 2 0 3 0 -2 -1 -2 0 -1 -2 0 -2
-1 0 -1 0 1 2 1 1 0 0 0 1 -3 0 -3 1 0 -1 1 -1 1 0 2 0 0 -3 0 -2 -2 -1 -2 0
2 -2 1 -1 -1 -1 0 0 -1 1 -1 1 0 -1 -1 -1 -3 -1 -4 0 -1 2 -1 1 -1 0 -1 0 0
-1 1 -2 -1 -2 -1 -2 2 -2 2 -1 -2 0 -2 0 0 -3 0 -4 1 1 1 0 0 -1 -1 -1 -1 -1
-1 0 0 0 -1 0 -2 0 -1 -1 -3 0 -2 -1 1 -1 0 -1 1 1 1 1 1 0 1 0 -2 -1 -1 -2
-3 2 -2 1 -1 -2 -1 -2 -2 1 -1 0 0 -2 -1 -1 1 -1 0 -1 1 0 1 0 -1 2 -1 1 1 0
2 -1 2 1 2 1 0 -1 0 -1 1 0 1 1 1 -1 0 -1 -1 1 -1 0 0 -2 1 -2 -1 0 -1 0 0 1
0 2 -2 0 -1 1 -1 0 0 0 1 -1 2 -2 0 -1 -1 -1 -1 0 -1 0 1 1 2 1 -2 0 -1 0 -2
-2 -2 -1 -2 1 -2 1 -1 0 0 -1 2 -2 2 -1 -2 1 -2 0 0 -1 0 -1 2 0 2 -1 1 -1 1
0 0 2 -1 2 1 -2 1 -1 0 -1 -1 -1 -3 0 -2 1 1 -1 0 -1 -2 1 -2 1 0 2 1 1 -2 0
-1 0 1 -1 0 -1 1 -3 0 -2 -1 1 -2 2 -1 0 -1 -1 -1 1 -1 2 0 -4 0 -3 0 -2 0 -2
-2 -2 -1 -1 -2 -1 -2 -1 2 -2 2 -1 -2 0 -2 1 -3 -2 -2 -1 0 -2 0 -2 -1 -1 -1
-1 3 1 3 0 -2 -1 -1 -1 -3 0 -2 0 0 -1 -1 -1 1 2 0 2 -1 0 -2 1 -1 -1 0 -1 -1
0 -1 1 -1 -1 -2 -2 3 -2 2 -2 0 -1 -1 0 -2 2 -2 1 0 -1 1 -2 -2 -1 -1 0 1 1 1
1 -1 0 -2 1 0 -1 0 -1 -2 1 -2 1 0 -1 0 -1 1 -1 1 0 0 -1 0 -1 -2 0 -2 0 -1 1
-1 2 0 -2 1 -2 5 -1 6 0 0 1 0 1 1 -1 1 -1 102 0 101 0 0 294 0 294 0 0 -1 0
-2 -42z m-19 -332 l-1 0 -1 0 -1 1 1 0 2 0 0 -1z m-6 -15 l-1 -1 2 0 1 0 0 -1
-1 0 -2 0 -1 1 0 1 1 1 1 0 0 0 0 -1z m-1 -3 l2 -1 -5 0 -4 0 1 1 2 1 1 0 2 0
1 -1z m-2 -3 l0 -2 -1 1 -1 0 0 1 0 1 1 0 1 0 0 -1z m-17 -25 l0 -1 -1 0 -1
-1 0 1 0 1 1 0 1 0 0 0z m-9 -16 l0 0 -2 1 -2 1 0 1 0 0 2 -1 2 -1 0 -1z m-8
-12 l0 -1 0 0 -1 0 0 1 -1 1 1 0 1 0 0 -1z m-7 -7 l0 -1 -1 1 -2 0 1 1 0 1 1
-1 1 0 0 -1z m-22 -22 l0 -2 -2 1 -1 0 0 2 0 1 1 -1 2 0 0 -1z m2 0 l1 -2 -1
0 -1 -1 0 2 0 2 0 0 1 0 0 -1z m-15 -9 l0 -1 -1 0 -1 0 0 1 0 1 1 0 1 0 0 -1z
m-34 -31 l1 0 -1 -2 -1 -1 1 1 2 0 -1 -2 0 -1 -2 2 -2 2 1 1 0 1 1 0 1 0 0 -1z
m5 0 l0 -1 -1 1 -2 0 0 1 0 0 2 0 1 0 0 -1z m-5 -6 l0 -1 -1 0 -1 0 0 1 0 1 0
0 1 0 1 -1z m-3 -3 l1 -1 -2 1 -2 1 0 1 0 0 1 0 2 0 0 -2z m-4 -7 l0 -1 -1 1
-1 0 1 1 0 1 1 0 0 0 0 -2z m-5 -7 l0 -1 -1 0 -1 -1 0 1 0 1 1 0 1 0 0 0z
m-24 -16 l-1 0 1 -1 0 -1 2 2 2 1 1 -1 0 -1 -1 0 -1 1 0 -1 -1 -2 -2 0 -3 -1
-1 1 0 1 2 2 2 1 -1 2 0 2 1 -2 1 -2 -1 -1z m-6 -9 l0 -1 -1 0 -1 0 1 1 0 1 1
0 0 0 0 -1z m0 -5 l-1 -1 0 1 0 2 1 0 0 -1 0 -1z m-6 -2 l1 -1 -1 0 -2 -1 0 2
-1 1 1 0 1 0 1 -1z m-10 -5 l0 -2 -1 0 -2 -1 -1 1 -1 1 0 0 1 1 2 1 2 1 0 -1
1 0 -1 -1z m1 -4 l1 -2 0 0 0 -1 -2 0 -1 0 1 -1 1 -1 -2 0 -3 1 0 0 0 1 2 0 1
0 0 2 -1 2 1 0 0 0 2 -1z"/>
<path d="M23 574 l0 0 0 -1 0 -1 -1 0 -1 0 0 -1 0 -1 2 -1 2 -1 -1 2 0 1 1 0
1 -1 0 1 0 1 -1 0 -1 0 0 2 1 1 -1 0 -1 0 0 -1z"/>
<path d="M23 564 l0 -1 1 1 0 1 0 1 -1 0 0 -2z"/>
<path d="M23 561 l1 -1 -1 -1 0 -1 1 0 2 1 1 0 0 0 0 1 0 1 -1 0 -1 -1 0 1 -1
1 -1 0 -1 0 1 -1z"/>
<path d="M26 557 l0 -2 -1 0 -1 -1 0 -5 0 -6 -1 0 -1 0 1 -2 2 -2 -2 -2 -1 -1
0 -2 0 -2 1 -1 1 -1 -2 0 -1 0 1 -2 2 -1 -1 -1 0 0 -1 -1 -1 -1 1 -1 2 -1 -2
0 -1 0 0 -2 -1 -2 1 -1 1 -2 -1 0 -2 0 1 -2 1 -3 -1 -1 -1 0 0 -1 1 -1 -1 -2
-1 -3 1 0 1 0 -1 -1 -1 -2 1 0 1 -1 -1 -1 0 -1 -1 -5 0 -5 0 -3 -1 -2 0 -2 0
-2 -1 -1 -1 -1 1 0 2 0 -2 -1 -1 -2 2 0 2 0 -2 -1 -1 -1 0 -2 1 -2 -1 1 -1 0
0 -1 0 -1 1 0 2 -1 -2 0 -1 0 1 -4 1 -3 -1 -2 0 -2 -1 -1 0 -1 1 0 1 0 -1 -2
-1 -2 1 -1 1 0 -1 -2 0 -1 -1 -3 -1 -2 1 -3 0 -3 -1 0 -1 0 1 -3 0 -2 1 -1 2
-1 -2 0 -1 0 -1 0 -1 0 0 -1 0 -1 2 0 2 0 -2 -1 -1 -1 1 -1 0 -1 -1 0 -1 1 0
-1 -1 -1 1 0 2 0 -2 -1 -2 -1 1 -1 1 -2 -2 -1 -2 -1 0 1 1 1 -1 0 -1 0 0 -1
-1 -2 1 0 2 0 1 -1 0 -1 1 -3 0 -2 -1 0 -1 0 1 1 0 1 -1 0 -1 0 -2 -1 -1 -2 1
0 0 -1 -2 -1 -1 -1 0 1 0 2 0 1 0 2 -1 0 -1 0 1 -2 1 -2 -1 0 -1 0 0 1 -1 2 0
-202 0 -202 27 0 27 0 0 15 -1 15 -1 53 -1 54 -1 1 0 1 0 29 0 29 -1 10 -1 11
0 3 -1 4 1 -2 1 -1 0 7 -1 7 -2 22 -1 22 0 23 0 23 -1 14 -1 14 -1 20 -1 20
-1 10 0 11 -3 27 -2 28 -1 19 -2 19 -1 9 0 9 -2 11 -1 12 -1 0 -1 1 1 1 1 0 0
1 0 1 -2 0 -1 -1 1 1 1 2 0 2 -1 2 0 -2z m-2 -21 l-1 -2 -1 1 0 0 1 1 2 1 0 0
1 0 -2 -1z m-17 -138 l0 -1 -1 -1 -1 -1 -2 1 -1 1 1 1 2 1 0 0 1 0 1 -1z m-3
-5 l-1 -1 2 -1 2 -2 -1 -2 -1 -2 -1 -1 -1 0 1 2 2 3 -1 0 0 1 -2 -1 -2 -1 0 1
0 1 2 0 1 0 -1 2 -2 2 1 0 2 0 0 -1z m0 -13 l0 -1 -1 0 -1 -1 0 1 0 1 1 0 1 0
0 0z"/>
<path d="M185 554 l-2 0 -5 -1 -4 -1 -4 -2 -4 -2 -4 -3 -3 -2 0 -2 0 -2 3 -8
3 -7 1 -7 1 -7 -1 -5 -1 -5 -1 0 -1 1 -4 -6 -3 -6 -8 -9 -9 -9 -5 -7 -6 -8 -5
-11 -6 -10 -2 -6 -1 -5 0 -12 1 -11 2 -5 2 -5 2 -1 2 -1 3 0 4 1 7 5 7 5 7 2
7 3 4 1 5 0 3 -1 4 -1 3 -4 4 -4 1 -5 1 -6 -1 -8 -1 -7 -5 -11 -4 -11 -5 -8
-6 -7 -9 -14 -9 -13 -2 -5 -3 -4 -3 3 -4 3 -1 0 -1 0 0 -2 0 -1 3 -4 3 -3 -10
-20 -10 -20 -6 -16 -5 -15 -1 -7 0 -7 1 -7 2 -6 4 -8 4 -8 5 -8 6 -8 3 -7 3
-7 5 -10 4 -9 8 -20 7 -19 3 -5 2 -4 3 -4 3 -4 6 -7 7 -6 11 -7 12 -7 7 -3 7
-2 5 -2 6 -1 5 1 5 0 4 2 4 1 3 3 3 2 2 4 2 4 1 2 0 2 1 7 0 8 -1 5 -2 6 -4 6
-4 7 -5 5 -4 5 -3 5 -2 6 0 10 0 10 1 5 1 5 3 4 3 5 5 3 4 3 5 2 4 1 1 -1 0
-1 1 1 1 1 14 2 14 1 8 2 8 2 5 3 6 3 5 5 5 5 5 6 4 6 3 7 3 6 1 11 0 11 -1
13 -2 14 -1 3 -1 4 -1 27 -1 27 -2 12 -3 12 -3 7 -3 6 -3 2 -2 2 -5 1 -5 2 -5
-2 -5 -1 -3 -1 -2 -2 -2 -4 -3 -4 -1 -7 -1 -6 0 -16 1 -16 -1 -5 -1 -4 -3 -4
-2 -4 -5 -3 -4 -4 -5 -1 -4 -2 -4 0 -4 0 -3 1 -2 2 -2 4 -2 5 -1 6 -1 6 1 7 2
8 1 6 2 7 6 15 5 15 6 10 6 11 3 4 3 4 7 8 7 8 8 10 9 11 6 9 5 8 4 8 4 9 2 8
2 8 1 8 0 9 -2 7 -2 7 -4 6 -4 6 -5 4 -5 4 -7 3 -6 3 -2 1 -1 0 -9 3 -8 2 -7
2 -6 2 -11 1 -10 2 -14 0 -13 0 -2 1 -2 0 -4 1 -4 0 -9 0 -9 1 -3 -1z m25 -4
l8 -1 9 0 10 0 10 -1 10 -1 18 -5 18 -4 9 -5 9 -4 6 -5 6 -6 3 -7 4 -7 -1 -12
0 -11 -2 -8 -2 -8 -4 -9 -5 -9 -6 -8 -5 -8 -14 -17 -14 -17 -4 -6 -5 -6 -5 -9
-5 -9 -6 -16 -6 -16 -2 -12 -3 -11 0 -8 1 -8 2 -6 3 -6 3 -3 3 -2 6 0 5 0 7 4
7 3 5 5 5 5 2 4 2 4 0 21 0 21 0 3 1 4 2 3 2 4 2 2 3 2 6 1 6 0 3 -2 4 -2 2
-6 3 -5 3 -13 2 -13 1 -27 1 -26 0 -2 1 -1 2 -14 2 -13 0 -10 0 -9 -2 -6 -2
-6 -3 -5 -3 -6 -5 -5 -4 -5 -3 -3 -3 -2 -4 -2 -4 -2 -8 -2 -8 -3 -10 -1 -10
-2 -7 -1 -7 0 -6 -2 -5 -2 -4 -4 -4 -3 -3 -6 -3 -6 -1 -9 -1 -9 1 -8 1 -7 2
-4 2 -4 5 -7 6 -6 2 -3 1 -3 3 -5 2 -4 0 -7 0 -7 -1 -4 -1 -4 -2 -3 -3 -3 -5
-3 -5 -3 -7 0 -7 0 -8 3 -7 2 -9 5 -8 4 -6 4 -5 4 -5 5 -5 5 -3 4 -3 4 -2 3
-2 4 -7 17 -6 18 -7 13 -6 14 -2 5 -2 5 -8 12 -8 12 -2 7 -3 7 -1 8 0 9 2 6 2
6 4 10 3 10 10 19 10 19 1 1 1 0 9 -8 9 -8 1 1 1 0 0 2 0 2 -9 7 -10 8 0 1 0
0 9 14 9 14 5 7 5 7 4 7 4 7 3 9 4 9 1 6 1 7 0 5 -1 6 -3 5 -2 5 -5 3 -4 4 -6
-1 -6 0 -10 -4 -10 -4 -3 -2 -2 -2 -5 -1 -4 -2 -2 0 -1 1 -2 3 -2 4 -1 10 0
10 1 5 2 6 6 11 5 11 5 6 4 6 6 6 6 7 2 0 1 -1 2 2 3 2 3 4 3 5 3 8 2 8 0 7
-1 8 -4 9 -3 10 2 2 3 2 6 2 6 2 4 1 5 1 7 -1 7 0 7 -1z"/>
<path d="M0 420 l0 -1 1 -2 1 -1 0 1 0 1 -1 2 -1 2 0 -2z"/>
<path d="M0 413 l0 -1 1 1 0 1 0 1 -1 0 0 -2z"/>
<path d="M0 409 l0 -2 0 0 1 0 0 1 1 2 -1 1 -1 0 0 -2z"/>
<path d="M419 210 l0 -1 1 0 1 0 0 1 -1 1 -1 0 0 0 0 -1z"/>
<path d="M409 198 l2 -1 0 0 1 1 -2 1 -2 1 1 -2z"/>
<path d="M378 145 l-1 -1 2 0 1 0 0 1 -1 1 0 0 -1 0 0 -1z"/>
<path d="M338 109 l2 -1 1 0 0 1 -2 1 -2 1 1 -2z"/>
<path d="M330 103 l-1 -1 1 -1 2 -1 -1 2 0 2 -1 0 0 0 0 -1z"/>
<path d="M323 96 l0 -2 1 0 0 1 -1 1 -1 2 1 -2z"/>
<path d="M315 88 l-1 -1 3 0 2 0 0 1 0 1 -2 0 -2 0 0 -1z"/>
<path d="M310 86 l-1 -1 1 0 1 0 0 1 0 1 0 0 -1 0 0 -1z"/>
<path d="M314 80 l-1 -1 1 1 1 1 0 1 -1 0 0 -2z"/>
<path d="M308 77 l-1 -1 1 0 1 0 1 1 2 1 -2 0 -2 0 0 -1z"/>
<path d="M311 75 l-1 -1 1 1 2 0 0 1 0 1 0 0 -1 0 -1 -2z"/>
<path d="M297 65 l0 -1 2 0 2 0 0 1 0 1 -2 0 -2 0 0 -1z"/>
<path d="M295 59 l0 -1 1 1 1 0 0 1 0 0 -2 0 -1 0 1 -1z"/>
<path d="M281 52 l-1 -2 2 1 1 2 0 0 -1 1 -1 -2z"/>
<path d="M271 40 l-1 -1 1 0 1 0 1 1 0 1 0 0 0 0 -2 -1z"/>
<path d="M265 31 l-1 -2 1 0 2 -1 -3 0 -2 0 0 -1 0 -1 2 0 1 1 1 0 1 0 0 2 0
3 -1 0 0 0 -1 -1z"/>
</g>
</svg>
