<?xml version="1.0" standalone="no"?>
<!DOCTYPE svg PUBLIC "-//W3C//DTD SVG 20010904//EN"
 "http://www.w3.org/TR/2001/REC-SVG-20010904/DTD/svg10.dtd">
<svg version="1.0" xmlns="http://www.w3.org/2000/svg" xmlns:xlink="http://www.w3.org/1999/xlink"
 width="450.000000pt" height="600.000000pt" viewBox="0 0 450.000000 600.000000"
 preserveAspectRatio="xMidYMid meet">
<metadata>
Created by potrace 1.12, written by Peter Selinger 2001-2015
</metadata>
<g transform="translate(0.000000,0.000000) scale(1.000000,1.000000)"
fill="none" stroke="black">
<path d="M162 440 l-8 0 -3 -3 -3 -3 -1 -5 0 -4 -1 -11 0 -11 0 -12 -1 -12 -1
-14 -1 -13 0 -10 0 -9 -1 -6 0 -5 -1 -8 -1 -7 0 -36 0 -35 3 -2 3 -2 -1 0 0
-1 -2 0 -2 0 -1 -4 -1 -4 1 -4 0 -4 -1 -5 -1 -5 -1 -16 -1 -16 -1 -10 -1 -9
-1 -18 0 -18 -1 -5 0 -6 1 -1 2 -1 1 1 1 1 3 0 2 0 1 1 1 1 5 1 6 2 7 2 7 3
13 0 13 1 9 0 10 1 6 1 7 0 8 2 8 2 13 5 14 6 7 4 7 3 6 4 7 4 13 10 13 10 10
11 11 11 3 5 4 6 5 10 6 11 2 7 3 8 2 9 2 10 1 9 1 10 0 13 0 14 -2 12 -2 13
-2 8 -2 8 -3 6 -2 7 -4 7 -4 8 -5 8 -6 7 -7 7 -7 8 -8 6 -7 6 -9 4 -8 5 -9 3
-9 4 -11 2 -10 2 -16 1 -16 2 -8 1 -8 1 -19 0 -19 1 -8 -1z" id="theMotionPath"/>

	<rect width="20" height="10" fill="red">

        <!-- Define the motion path animation -->
        <animateMotion dur="6s" rotate="auto" repeatCount="indefinite">
           <mpath xlink:href="#theMotionPath"/>
        </animateMotion>
    </rect>

</g>
</svg>
