<?xml version="1.0" standalone="no"?>
<!DOCTYPE svg PUBLIC "-//W3C//DTD SVG 20010904//EN"
 "http://www.w3.org/TR/2001/REC-SVG-20010904/DTD/svg10.dtd">
<svg version="1.0" xmlns="http://www.w3.org/2000/svg"
 width="800.000000pt" height="600.000000pt" viewBox="0 0 800.000000 600.000000"
 preserveAspectRatio="xMidYMid meet">
<metadata>
Created by potrace 1.12, written by Peter Selinger 2001-2015
</metadata>
<g transform="translate(0.000000,600.000000) scale(1.000000,-1.000000)"
fill="#000000" stroke="none">
<path d="M484 540 c-14 -3 -27 -12 -32 -23 -2 -3 -4 -6 -5 -8 -4 -5 -9 -20
-12 -32 -1 -7 -1 -11 -2 -51 -1 -24 -2 -36 -3 -37 0 0 0 -1 1 -1 1 0 1 -2 0
-4 -1 -2 -1 -3 0 -4 1 -1 1 -2 0 -2 -1 -1 -1 -1 0 -3 0 -1 0 -2 -1 -3 -1 -1
-2 -3 -2 -6 -1 -6 -3 -16 -4 -21 0 -2 -1 -6 -2 -9 -1 -3 -2 -6 -2 -7 -1 0 -1
-1 -1 -2 0 -2 -7 -10 -10 -13 -9 -6 -19 -6 -29 2 -5 4 -15 23 -18 36 -3 11 -3
27 -1 37 1 7 12 37 19 53 7 14 9 23 7 33 -2 12 -8 21 -19 26 -6 3 -7 3 -19 4
l-13 0 -9 9 c-7 7 -11 10 -15 12 -7 3 -10 4 -16 1 -7 -2 -11 -6 -14 -13 -3 -5
-3 -7 -3 -15 0 -10 1 -14 6 -20 2 -3 4 -5 4 -5 1 -1 3 -5 6 -11 3 -5 3 -8 3
-14 0 -6 0 -8 -3 -13 -2 -4 -7 -12 -12 -18 -5 -6 -10 -13 -12 -15 -3 -5 -12
-23 -17 -33 -1 -3 -3 -7 -4 -9 -5 -12 -8 -18 -13 -33 -1 -3 -3 -7 -3 -9 -7
-17 -9 -23 -9 -25 0 0 -1 -5 -2 -9 -3 -9 -4 -14 -7 -31 -1 -6 -3 -14 -4 -18
-1 -4 -1 -7 -2 -8 0 -2 -1 -8 -2 -14 -3 -12 -4 -18 -7 -39 -1 -12 -1 -34 0
-40 0 -3 1 -7 2 -10 2 -11 5 -16 11 -24 4 -3 9 -8 12 -10 5 -2 6 -2 13 -2 6 0
9 0 13 2 19 10 30 29 38 66 7 32 11 42 19 54 6 7 13 12 19 14 5 1 5 2 3 2 -2
1 -1 1 2 1 5 -1 7 -2 13 -6 9 -7 15 -21 16 -38 1 -5 1 -8 5 -27 4 -27 18 -44
43 -53 20 -6 42 1 52 17 5 11 7 19 7 45 0 23 2 31 8 35 2 1 3 3 3 4 0 0 0 1 1
1 0 0 1 0 3 1 2 1 2 1 3 -1 0 -1 1 -2 2 -2 0 0 1 0 0 1 0 1 2 1 7 1 10 -1 9
-1 28 -7 5 -2 10 -3 11 -3 0 -1 2 -1 4 -2 2 -1 6 -2 8 -3 2 0 5 -1 6 -1 0 -1
3 -1 5 -1 2 0 4 -1 4 -1 0 -1 3 -1 6 -1 4 0 8 0 10 -1 3 0 5 0 6 1 1 1 2 1 4
0 3 -1 6 -1 6 0 0 0 2 1 4 0 2 0 5 1 8 2 2 0 8 2 12 3 9 2 17 7 25 13 20 16
31 30 42 58 11 26 16 46 17 74 0 21 -3 37 -10 50 -7 14 -18 21 -32 22 -5 0 -9
0 -9 0 -1 0 -4 0 -7 -1 -4 -2 -7 -3 -11 -7 -2 -2 -5 -5 -5 -6 -1 -1 -1 -2 -2
-2 -2 2 -6 -14 -7 -26 -1 -3 -1 -6 -1 -7 -1 -1 -1 -3 -1 -4 -2 -7 -5 -16 -9
-25 -7 -15 -13 -22 -26 -28 -24 -12 -49 -5 -73 20 -6 6 -15 20 -15 23 0 1 -1
2 -1 4 -6 8 -7 31 -3 43 1 4 3 7 3 7 0 0 2 2 3 4 2 4 8 13 13 18 3 3 3 3 1 2
-1 0 -3 -1 -3 -2 -1 -1 -2 -2 -3 -3 -1 -1 -2 -2 -2 -3 0 -1 -4 -4 -5 -4 0 0
-2 -2 -3 -4 -1 -2 -3 -6 -5 -9 -2 -4 -3 -7 -3 -7 0 0 -1 -1 -2 -3 0 -2 -1 -3
-1 -4 1 0 0 -1 0 -2 -1 -1 -1 -3 -1 -6 0 -3 0 -6 0 -7 0 -4 2 -13 3 -15 0 -2
1 -4 2 -6 3 -9 11 -25 13 -26 0 0 1 -1 1 -1 0 -1 1 -2 2 -3 0 -1 2 -3 4 -5 2
-2 4 -4 4 -4 1 0 4 -2 6 -4 5 -5 16 -12 25 -15 3 -1 7 -1 14 -1 21 0 35 6 48
19 6 6 9 10 12 16 6 13 11 31 12 51 1 3 2 10 4 14 2 7 3 8 7 11 6 4 12 5 23 3
8 -2 22 -10 22 -14 0 0 0 -1 1 -1 1 0 4 -6 6 -12 2 -6 2 -6 1 -5 -1 0 -1 0 -1
-1 0 -1 1 -1 1 -1 1 0 1 -1 0 -1 -2 -1 -3 -3 -1 -2 1 0 2 -1 2 -3 0 -1 0 -3 1
-4 1 -1 1 -4 0 -6 0 -3 0 -4 2 -6 1 -2 1 -2 0 -2 -1 0 -2 -1 -2 -5 0 -7 -1
-23 -3 -34 -1 -4 -1 -7 -1 -8 -1 -2 -1 -5 -2 -7 0 -2 0 -5 0 -5 -1 -1 -2 -4
-3 -7 -2 -3 -3 -6 -3 -7 0 0 -1 -2 -2 -3 -1 -1 -2 -2 -1 -3 0 -1 0 -2 -1 -2 0
1 -1 -1 -2 -3 -1 -2 -2 -5 -4 -6 -1 -2 -2 -4 -2 -5 0 -2 -4 -6 -5 -6 -1 0 -1
0 -1 -1 0 -1 0 -2 -1 -2 -1 1 -7 -6 -7 -7 0 -2 -4 -6 -17 -18 -1 -1 -2 -2 -3
-2 0 0 -1 -1 -2 -2 -2 -2 -13 -8 -15 -8 -1 0 -3 -1 -4 -1 -11 -5 -19 -6 -32
-7 -9 0 -16 1 -19 2 -4 1 -8 1 -9 1 -6 1 -9 2 -14 4 -3 1 -8 2 -11 3 -3 1 -10
3 -16 5 -9 3 -12 3 -22 3 -6 0 -13 0 -14 -1 -1 0 -3 -1 -5 -2 -4 -2 -11 -8
-13 -13 -3 -7 -3 -9 -4 -25 0 -24 -2 -35 -5 -41 -3 -8 -5 -10 -12 -13 -6 -3
-8 -4 -13 -4 -14 0 -30 8 -38 19 -3 5 -7 17 -8 23 -1 1 -1 5 -2 9 0 3 -1 10
-2 15 -3 25 -11 42 -25 51 -3 2 -5 3 -6 2 -1 -1 -1 -1 0 0 0 1 0 2 -1 2 -1 0
-2 0 -2 -1 0 -2 -4 -1 -5 1 -1 1 -4 2 -4 0 1 -1 0 -1 -2 -1 -4 0 -9 -2 -10 -3
0 -1 -2 -1 -3 -1 -1 0 -4 -2 -6 -5 -3 -2 -6 -4 -6 -4 -2 0 -10 -9 -14 -15 -5
-8 -10 -23 -15 -43 -7 -33 -11 -43 -21 -54 -8 -9 -13 -11 -21 -7 -7 3 -15 11
-17 16 -6 13 -7 18 -7 37 0 18 1 32 7 60 2 11 5 24 5 29 5 28 10 47 18 70 21
59 28 72 45 93 17 19 20 26 22 36 1 10 -3 23 -13 35 -8 9 -9 12 -10 20 0 6 1
9 2 12 2 5 4 6 7 4 1 -1 3 0 7 1 3 1 6 2 7 1 1 0 2 0 2 0 1 0 5 -5 10 -9 15
-14 20 -16 32 -14 6 1 7 1 11 0 10 -5 18 -19 17 -31 -1 -7 -3 -18 -4 -18 -1 0
-2 -2 -3 -5 -1 -2 -3 -5 -3 -6 -1 -1 -1 -3 -1 -3 0 -1 -1 -3 -2 -4 -1 -1 -3
-7 -5 -11 -2 -5 -4 -11 -5 -12 0 -2 -1 -4 -1 -5 -2 -9 -4 -17 -5 -18 -1 -2 0
-23 1 -25 1 -1 1 -3 1 -4 0 -1 1 -2 2 -3 1 -1 1 -1 0 -3 -1 -2 -1 -3 1 -5 1
-2 1 -4 2 -4 0 0 0 -1 0 -2 1 -2 2 -7 2 -8 0 -1 0 -1 1 -1 1 0 1 -1 1 -2 0 -3
12 -18 14 -18 1 0 3 -1 4 -2 10 -8 28 -5 38 6 8 8 11 17 15 37 3 14 4 16 5 35
1 7 1 14 2 15 0 1 0 17 1 36 1 36 2 42 6 56 4 14 15 33 20 37 11 9 28 11 45 6
8 -2 17 -7 17 -10 0 0 0 -1 1 -1 0 0 2 -2 3 -5 2 -3 4 -5 4 -5 2 0 2 -2 2 -7
0 -1 1 -2 2 -3 1 -1 1 -1 0 -2 -1 -1 -1 -1 0 -2 0 -1 1 -2 0 -3 0 -1 0 -2 1
-2 1 0 1 -13 0 -15 -1 0 -1 -2 0 -2 0 -1 0 -3 -1 -3 -2 -3 -4 -10 -3 -10 2 0
1 -4 -3 -8 -3 -3 -4 -4 -3 -3 2 3 1 3 -2 0 -2 -2 -2 -2 -1 -2 2 0 2 0 1 -3 -1
-1 -2 -3 -3 -4 -1 0 -3 -3 -4 -4 -1 -2 -3 -4 -3 -4 -1 0 -3 -1 -4 -3 -4 -5 -4
-6 -3 -6 1 0 2 1 2 3 1 1 2 2 2 2 1 0 9 8 10 10 0 0 2 2 3 3 3 3 12 17 16 25
2 5 2 7 2 18 0 14 -1 20 -7 31 -9 15 -21 22 -40 23 -6 0 -13 -1 -17 -1z m211
-177 c-1 -1 -1 0 -1 1 0 1 0 2 1 1 0 0 0 -2 0 -2z m-369 -137 c-2 0 -4 -1 -5
-1 -3 0 -13 -8 -18 -14 -5 -5 -7 -6 -5 -3 1 2 11 12 14 14 2 1 4 2 4 2 1 1 8
4 11 4 1 0 1 0 -1 -2z m-24 -11 c-1 0 -1 -1 -2 -1 0 1 1 3 2 3 1 0 1 -1 0 -2z
m-4 -4 c-1 -1 -1 -1 -1 0 0 1 1 2 2 1 0 0 0 -1 -1 -1z m172 -11 c-2 -1 -3 -2
-3 -2 -2 0 0 5 1 6 2 2 2 2 4 0 1 -1 0 -2 -2 -4z m8 4 c-1 -1 -2 -1 -2 -1 -1
0 -1 0 0 1 2 1 2 1 2 0z m-13 -8 c0 -1 -1 -2 -1 -2 -1 0 -1 1 0 2 0 0 1 1 1 1
1 0 1 -1 0 -1z"/>
<path d="M535 459 c-1 -1 -1 -1 0 -1 1 0 1 0 1 1 0 1 0 1 0 1 -1 0 -1 0 -1 -1z"/>
<path d="M520 440 c-1 -1 -1 -1 0 -1 1 0 1 0 1 1 0 1 0 1 0 1 -1 0 -1 0 -1 -1z"/>
</g>
</svg>
