<?xml version="1.0" encoding="UTF-8" standalone="no"?>
<svg
   xmlns:dc="http://purl.org/dc/elements/1.1/"
   xmlns:cc="http://creativecommons.org/ns#"
   xmlns:rdf="http://www.w3.org/1999/02/22-rdf-syntax-ns#"
   xmlns:svg="http://www.w3.org/2000/svg"
   xmlns="http://www.w3.org/2000/svg"
   xmlns:sodipodi="http://sodipodi.sourceforge.net/DTD/sodipodi-0.dtd"
   xmlns:inkscape="http://www.inkscape.org/namespaces/inkscape"
   version="1.0"
   width="700.000000pt"
   height="1231.000000pt"
   viewBox="0 0 700.000000 1231.000000"
   preserveAspectRatio="xMidYMid meet"
   id="svg2"
   inkscape:version="0.48.4 r9939"
   sodipodi:docname="track.svg">
  <defs
     id="defs148" />
  <sodipodi:namedview
     pagecolor="#ffffff"
     bordercolor="#666666"
     borderopacity="1"
     objecttolerance="10"
     gridtolerance="10"
     guidetolerance="10"
     inkscape:pageopacity="0"
     inkscape:pageshadow="2"
     inkscape:window-width="640"
     inkscape:window-height="480"
     id="namedview146"
     showgrid="false"
     inkscape:zoom="0.21689969"
     inkscape:cx="526.27917"
     inkscape:cy="442.63432"
     inkscape:window-x="585"
     inkscape:window-y="1573"
     inkscape:window-maximized="0"
     inkscape:current-layer="svg2" />
  <metadata
     id="metadata4">
Created by potrace 1.12, written by Peter Selinger 2001-2015
<rdf:RDF>
  <cc:Work
     rdf:about="">
    <dc:format>image/svg+xml</dc:format>
    <dc:type
       rdf:resource="http://purl.org/dc/dcmitype/StillImage" />
  </cc:Work>
</rdf:RDF>
</metadata>
	<rect width="700" height="1231" style="fill:rgb(0, 153, 0);" />
  <g
     transform="translate(0.000000,1231.000000) scale(0.100000,-0.100000)"
     fill="#000000"
     id="g6">
    <path
		stroke="white"
		stroke-width="600"
       d="M2740 11706 c-8 -8 -65 -18 -103 -17 -9 0 -15 -4 -12 -10 4 -5 0 -9 -9 -9 -8 0 -16 5 -18 11 -3 9 -18 7 -53 -4 -28 -9 -65 -19 -83 -22 -18 -3 -41 -9 -50 -14 -9 -5 -41 -19 -69 -32 -29 -12 -53 -26 -53 -30 0 -4 -10 -10 -22 -13 -13 -3 -52 -30 -88 -59 -46 -38 -66 -61 -70 -82 -5 -27 10 -94 31 -137 5 -9 30 -79 58 -155 38 -106 53 -167 66 -265 18 -136 15 -199 -15 -296 -15 -48 -21 -57 -41 -57 -20 0 -31 -14 -62 -75 -51 -102 -137 -213 -265 -345 -128 -132 -187 -197 -227 -249 -17 -21 -52 -66 -78 -100 -69 -88 -147 -208 -199 -306 -125 -235 -154 -293 -193 -390 -68 -171 -80 -233 -79 -400 3 -230 28 -392 78 -487 41 -81 140 -129 209 -103 81 31 126 55 177 94 30 23 75 55 100 71 25 17 47 33 50 37 3 4 28 17 55 28 28 12 59 25 70 30 99 44 227 88 282 96 27 3 55 8 64 9 9 2 49 -1 88 -5 165 -21 287 -134 332 -307 61 -241 6 -499 -192 -898 -64 -128 -103 -195 -186 -314 -37 -53 -99 -142 -138 -199 -38 -57 -85 -125 -103 -150 -58 -83 -78 -114 -211 -322 -72 -113 -132 -209 -134 -215 -4 -11 -136 101 -144 122 -10 25 -50 15 -61 -15 -14 -40 -2 -60 76 -134 l71 -67 -39 -73 c-22 -40 -44 -80 -50 -88 -20 -32 -200 -385 -200 -394 0 -2 -29 -64 -64 -138 -35 -73 -76 -160 -91 -193 -27 -57 -81 -202 -110 -290 -7 -22 -38 -105 -68 -185 -83 -218 -91 -260 -91 -435 0 -125 4 -165 23 -240 29 -113 104 -290 172 -409 43 -75 180 -282 212 -321 17 -21 77 -117 77 -124 0 -3 8 -22 19 -41 10 -20 38 -83 61 -140 47 -119 67 -163 173 -380 72 -146 177 -404 268 -655 108 -296 154 -402 229 -523 133 -214 346 -443 519 -556 57 -38 120 -75 139 -83 19 -8 43 -23 55 -34 11 -10 53 -35 91 -55 39 -19 78 -41 86 -48 25 -21 119 -62 210 -91 47 -15 99 -36 117 -46 18 -10 56 -23 85 -29 59 -12 83 -18 83 -20 0 -3 64 -10 110 -11 62 -3 225 11 244 21 18 10 89 41 141 63 60 25 166 132 195 195 14 31 30 65 36 75 6 11 12 40 15 65 11 115 14 141 22 199 11 84 7 175 -13 257 -15 65 -92 233 -121 266 -8 8 -35 46 -61 85 -25 38 -76 104 -112 145 -206 234 -261 383 -246 670 16 321 68 466 218 612 21 21 44 38 50 38 7 0 37 20 67 45 30 25 73 50 95 56 22 6 51 15 65 20 14 4 44 11 67 14 36 6 42 4 48 -14 8 -25 25 -18 25 10 0 10 3 19 8 19 20 1 322 30 357 35 349 47 503 83 675 158 133 57 238 125 339 220 34 33 173 200 179 217 7 19 28 40 39 40 5 0 15 17 22 38 8 20 19 44 26 52 23 29 65 109 65 123 0 9 3 17 8 19 18 7 63 140 78 228 19 113 23 458 6 565 -6 39 -16 111 -23 160 -27 217 -41 295 -70 414 l-32 126 -2 500 -2 500 -31 165 c-51 276 -89 442 -115 510 -31 84 -83 186 -114 227 -27 35 -123 103 -146 103 -8 0 -30 11 -49 24 -35 23 -80 28 -107 12 -6 -4 -28 -7 -49 -5 -60 3 -202 -26 -202 -42 0 -5 -8 -9 -19 -9 -30 0 -115 -96 -155 -176 -21 -42 -47 -111 -58 -153 -27 -105 -34 -330 -18 -621 14 -269 7 -358 -36 -466 -67 -167 -252 -317 -485 -393 -74 -25 -127 -26 -197 -6 -89 27 -141 88 -183 215 -61 188 -64 363 -9 590 10 41 21 93 25 115 12 74 87 318 130 424 23 58 53 138 65 176 52 162 142 359 235 515 18 30 58 98 89 150 90 153 192 292 330 449 94 107 211 245 246 291 19 24 42 52 50 61 14 15 43 51 152 189 85 108 168 218 168 224 0 2 19 33 43 68 44 66 177 293 177 303 0 3 13 33 30 67 16 33 27 65 23 71 -3 5 -1 7 4 4 6 -4 13 1 16 11 3 9 21 60 41 114 19 53 37 107 38 120 2 12 7 28 11 34 3 6 9 38 13 70 4 33 10 64 14 69 7 10 27 173 34 275 7 105 -17 267 -53 363 -5 12 -9 25 -10 30 0 4 -22 46 -47 95 -52 99 -144 232 -160 232 -6 0 -26 18 -45 40 -19 22 -38 40 -42 40 -5 0 -18 10 -29 23 -11 12 -17 15 -13 7 5 -12 4 -12 -7 1 -7 9 -22 19 -34 23 -11 3 -29 14 -40 24 -27 23 -79 52 -96 52 -7 0 -21 8 -30 19 -9 10 -40 26 -69 36 -30 10 -58 21 -63 26 -6 5 -18 9 -27 9 -10 0 -20 6 -23 13 -4 9 -7 9 -12 0 -5 -10 -25 -4 -149 48 -11 4 -33 9 -50 11 -16 2 -33 7 -36 11 -3 5 -21 12 -40 17 -103 27 -126 33 -144 40 -11 5 -41 14 -68 20 -26 7 -50 17 -53 22 -3 4 -10 6 -15 3 -5 -4 -9 -1 -9 5 0 7 -7 10 -15 6 -8 -3 -15 -2 -15 2 0 4 -23 8 -51 9 -29 1 -62 9 -77 19 -20 13 -50 18 -110 20 -47 1 -88 7 -97 14 -8 7 -22 9 -32 6 -9 -4 -20 -1 -24 6 -5 8 -12 9 -21 2 -7 -5 -24 -9 -38 -8 -51 4 -90 11 -96 17 -3 3 -12 3 -20 0 -8 -3 -22 -2 -31 2 -10 4 -135 9 -278 10 -320 4 -441 12 -459 31 -11 10 -15 11 -18 2 -4 -10 -30 -8 -114 5 -60 10 -110 22 -112 27 -2 6 -11 6 -23 -1 -12 -6 -34 -7 -52 -3 -47 10 -176 10 -187 0z m160 -54 c70 0 166 -9 180 -17 3 -2 37 -7 75 -10 39 -4 93 -9 120 -12 42 -4 139 -9 275 -14 14 -1 41 -1 60 0 19 1 53 0 75 -2 22 -2 51 0 64 5 14 5 27 5 30 -1 3 -5 59 -12 124 -16 96 -6 117 -5 117 6 1 10 4 8 11 -3 7 -12 22 -18 47 -18 50 0 255 -35 354 -60 27 -7 57 -10 68 -7 11 3 18 2 15 -3 -6 -9 -11 -7 215 -66 96 -24 186 -49 200 -54 14 -6 34 -11 45 -13 53 -8 201 -66 300 -117 149 -77 179 -94 183 -102 2 -5 8 -8 13 -8 14 0 153 -120 191 -165 51 -60 108 -135 108 -142 0 -8 52 -115 60 -123 7 -7 27 -66 44 -137 57 -223 -3 -645 -130 -920 -15 -32 -37 -81 -49 -109 -13 -27 -44 -85 -69 -128 -25 -43 -46 -80 -46 -82 0 -11 -177 -273 -231 -342 -33 -43 -72 -92 -87 -111 -15 -19 -74 -91 -131 -160 -56 -69 -117 -144 -135 -165 -17 -22 -45 -56 -62 -75 -62 -72 -239 -288 -256 -312 -9 -13 -28 -40 -42 -59 -14 -19 -43 -64 -66 -100 -22 -36 -45 -72 -50 -80 -32 -49 -149 -258 -185 -331 -46 -90 -94 -210 -140 -344 -15 -44 -33 -93 -40 -110 -83 -188 -182 -534 -226 -790 -17 -102 -6 -278 26 -400 59 -225 123 -304 272 -338 101 -23 181 -7 339 68 233 111 394 273 451 453 23 73 42 220 38 297 -1 22 -7 138 -14 258 -21 391 20 596 144 735 36 40 58 55 103 68 77 24 232 24 286 0 45 -20 124 -98 148 -147 68 -137 91 -215 142 -476 67 -339 69 -362 68 -853 -1 -414 0 -452 19 -544 11 -55 25 -110 30 -123 16 -44 81 -515 88 -648 9 -165 4 -309 -14 -405 -18 -92 -103 -288 -172 -397 -57 -90 -164 -221 -234 -287 -113 -106 -289 -206 -406 -231 -18 -3 -35 -11 -38 -16 -4 -5 -17 -9 -30 -9 -13 0 -59 -11 -102 -24 -43 -13 -96 -27 -118 -30 -225 -36 -310 -48 -447 -61 -89 -9 -164 -17 -167 -19 -3 -2 -31 -7 -62 -10 -51 -6 -130 -28 -250 -71 -79 -28 -229 -186 -288 -303 -66 -130 -109 -394 -97 -581 20 -284 71 -404 267 -632 68 -79 170 -232 223 -335 49 -96 66 -162 66 -253 0 -93 -27 -280 -44 -306 -9 -13 -16 -30 -16 -36 0 -24 -73 -125 -116 -159 -175 -140 -408 -161 -694 -61 -148 51 -355 147 -415 191 -5 4 -37 22 -70 40 -280 154 -448 309 -630 581 -90 134 -140 237 -205 419 -97 275 -261 675 -352 860 -50 102 -120 255 -155 340 -64 153 -103 231 -153 301 -216 308 -298 451 -353 616 -38 115 -59 291 -47 388 13 103 22 137 85 300 29 77 65 178 80 225 43 131 96 260 178 430 41 85 85 178 97 205 46 103 173 348 217 417 13 21 23 42 23 47 0 5 6 14 14 20 14 12 91 -48 348 -271 98 -86 100 -86 119 -67 10 10 19 31 19 46 0 32 -27 58 -255 247 -124 103 -159 137 -158 154 4 37 336 554 538 837 182 255 319 531 393 795 61 215 64 415 10 575 -49 141 -162 262 -285 304 -134 47 -228 31 -536 -90 -146 -57 -166 -68 -242 -126 -39 -29 -87 -56 -105 -59 -19 -4 -57 -18 -84 -32 -46 -24 -51 -25 -89 -11 -75 26 -116 115 -137 304 -27 241 -5 396 86 593 13 29 24 56 24 61 0 5 17 40 39 78 21 37 64 118 96 178 107 204 215 351 408 555 110 115 154 151 166 132 25 -39 196 143 257 273 90 194 124 369 103 524 -7 53 -12 100 -11 104 6 23 -85 296 -128 382 -25 52 -29 73 -14 93 20 29 106 90 146 104 18 6 35 14 38 18 13 17 206 69 302 81 59 7 104 17 101 22 -3 5 3 4 14 -1 10 -6 52 -10 93 -10z"
       id="path8" />
	<path
		stroke="red"
		stroke-width="600"
		stroke-dasharray="120,150"
       d="M2740 11706 c-8 -8 -65 -18 -103 -17 -9 0 -15 -4 -12 -10 4 -5 0 -9 -9 -9 -8 0 -16 5 -18 11 -3 9 -18 7 -53 -4 -28 -9 -65 -19 -83 -22 -18 -3 -41 -9 -50 -14 -9 -5 -41 -19 -69 -32 -29 -12 -53 -26 -53 -30 0 -4 -10 -10 -22 -13 -13 -3 -52 -30 -88 -59 -46 -38 -66 -61 -70 -82 -5 -27 10 -94 31 -137 5 -9 30 -79 58 -155 38 -106 53 -167 66 -265 18 -136 15 -199 -15 -296 -15 -48 -21 -57 -41 -57 -20 0 -31 -14 -62 -75 -51 -102 -137 -213 -265 -345 -128 -132 -187 -197 -227 -249 -17 -21 -52 -66 -78 -100 -69 -88 -147 -208 -199 -306 -125 -235 -154 -293 -193 -390 -68 -171 -80 -233 -79 -400 3 -230 28 -392 78 -487 41 -81 140 -129 209 -103 81 31 126 55 177 94 30 23 75 55 100 71 25 17 47 33 50 37 3 4 28 17 55 28 28 12 59 25 70 30 99 44 227 88 282 96 27 3 55 8 64 9 9 2 49 -1 88 -5 165 -21 287 -134 332 -307 61 -241 6 -499 -192 -898 -64 -128 -103 -195 -186 -314 -37 -53 -99 -142 -138 -199 -38 -57 -85 -125 -103 -150 -58 -83 -78 -114 -211 -322 -72 -113 -132 -209 -134 -215 -4 -11 -136 101 -144 122 -10 25 -50 15 -61 -15 -14 -40 -2 -60 76 -134 l71 -67 -39 -73 c-22 -40 -44 -80 -50 -88 -20 -32 -200 -385 -200 -394 0 -2 -29 -64 -64 -138 -35 -73 -76 -160 -91 -193 -27 -57 -81 -202 -110 -290 -7 -22 -38 -105 -68 -185 -83 -218 -91 -260 -91 -435 0 -125 4 -165 23 -240 29 -113 104 -290 172 -409 43 -75 180 -282 212 -321 17 -21 77 -117 77 -124 0 -3 8 -22 19 -41 10 -20 38 -83 61 -140 47 -119 67 -163 173 -380 72 -146 177 -404 268 -655 108 -296 154 -402 229 -523 133 -214 346 -443 519 -556 57 -38 120 -75 139 -83 19 -8 43 -23 55 -34 11 -10 53 -35 91 -55 39 -19 78 -41 86 -48 25 -21 119 -62 210 -91 47 -15 99 -36 117 -46 18 -10 56 -23 85 -29 59 -12 83 -18 83 -20 0 -3 64 -10 110 -11 62 -3 225 11 244 21 18 10 89 41 141 63 60 25 166 132 195 195 14 31 30 65 36 75 6 11 12 40 15 65 11 115 14 141 22 199 11 84 7 175 -13 257 -15 65 -92 233 -121 266 -8 8 -35 46 -61 85 -25 38 -76 104 -112 145 -206 234 -261 383 -246 670 16 321 68 466 218 612 21 21 44 38 50 38 7 0 37 20 67 45 30 25 73 50 95 56 22 6 51 15 65 20 14 4 44 11 67 14 36 6 42 4 48 -14 8 -25 25 -18 25 10 0 10 3 19 8 19 20 1 322 30 357 35 349 47 503 83 675 158 133 57 238 125 339 220 34 33 173 200 179 217 7 19 28 40 39 40 5 0 15 17 22 38 8 20 19 44 26 52 23 29 65 109 65 123 0 9 3 17 8 19 18 7 63 140 78 228 19 113 23 458 6 565 -6 39 -16 111 -23 160 -27 217 -41 295 -70 414 l-32 126 -2 500 -2 500 -31 165 c-51 276 -89 442 -115 510 -31 84 -83 186 -114 227 -27 35 -123 103 -146 103 -8 0 -30 11 -49 24 -35 23 -80 28 -107 12 -6 -4 -28 -7 -49 -5 -60 3 -202 -26 -202 -42 0 -5 -8 -9 -19 -9 -30 0 -115 -96 -155 -176 -21 -42 -47 -111 -58 -153 -27 -105 -34 -330 -18 -621 14 -269 7 -358 -36 -466 -67 -167 -252 -317 -485 -393 -74 -25 -127 -26 -197 -6 -89 27 -141 88 -183 215 -61 188 -64 363 -9 590 10 41 21 93 25 115 12 74 87 318 130 424 23 58 53 138 65 176 52 162 142 359 235 515 18 30 58 98 89 150 90 153 192 292 330 449 94 107 211 245 246 291 19 24 42 52 50 61 14 15 43 51 152 189 85 108 168 218 168 224 0 2 19 33 43 68 44 66 177 293 177 303 0 3 13 33 30 67 16 33 27 65 23 71 -3 5 -1 7 4 4 6 -4 13 1 16 11 3 9 21 60 41 114 19 53 37 107 38 120 2 12 7 28 11 34 3 6 9 38 13 70 4 33 10 64 14 69 7 10 27 173 34 275 7 105 -17 267 -53 363 -5 12 -9 25 -10 30 0 4 -22 46 -47 95 -52 99 -144 232 -160 232 -6 0 -26 18 -45 40 -19 22 -38 40 -42 40 -5 0 -18 10 -29 23 -11 12 -17 15 -13 7 5 -12 4 -12 -7 1 -7 9 -22 19 -34 23 -11 3 -29 14 -40 24 -27 23 -79 52 -96 52 -7 0 -21 8 -30 19 -9 10 -40 26 -69 36 -30 10 -58 21 -63 26 -6 5 -18 9 -27 9 -10 0 -20 6 -23 13 -4 9 -7 9 -12 0 -5 -10 -25 -4 -149 48 -11 4 -33 9 -50 11 -16 2 -33 7 -36 11 -3 5 -21 12 -40 17 -103 27 -126 33 -144 40 -11 5 -41 14 -68 20 -26 7 -50 17 -53 22 -3 4 -10 6 -15 3 -5 -4 -9 -1 -9 5 0 7 -7 10 -15 6 -8 -3 -15 -2 -15 2 0 4 -23 8 -51 9 -29 1 -62 9 -77 19 -20 13 -50 18 -110 20 -47 1 -88 7 -97 14 -8 7 -22 9 -32 6 -9 -4 -20 -1 -24 6 -5 8 -12 9 -21 2 -7 -5 -24 -9 -38 -8 -51 4 -90 11 -96 17 -3 3 -12 3 -20 0 -8 -3 -22 -2 -31 2 -10 4 -135 9 -278 10 -320 4 -441 12 -459 31 -11 10 -15 11 -18 2 -4 -10 -30 -8 -114 5 -60 10 -110 22 -112 27 -2 6 -11 6 -23 -1 -12 -6 -34 -7 -52 -3 -47 10 -176 10 -187 0z m160 -54 c70 0 166 -9 180 -17 3 -2 37 -7 75 -10 39 -4 93 -9 120 -12 42 -4 139 -9 275 -14 14 -1 41 -1 60 0 19 1 53 0 75 -2 22 -2 51 0 64 5 14 5 27 5 30 -1 3 -5 59 -12 124 -16 96 -6 117 -5 117 6 1 10 4 8 11 -3 7 -12 22 -18 47 -18 50 0 255 -35 354 -60 27 -7 57 -10 68 -7 11 3 18 2 15 -3 -6 -9 -11 -7 215 -66 96 -24 186 -49 200 -54 14 -6 34 -11 45 -13 53 -8 201 -66 300 -117 149 -77 179 -94 183 -102 2 -5 8 -8 13 -8 14 0 153 -120 191 -165 51 -60 108 -135 108 -142 0 -8 52 -115 60 -123 7 -7 27 -66 44 -137 57 -223 -3 -645 -130 -920 -15 -32 -37 -81 -49 -109 -13 -27 -44 -85 -69 -128 -25 -43 -46 -80 -46 -82 0 -11 -177 -273 -231 -342 -33 -43 -72 -92 -87 -111 -15 -19 -74 -91 -131 -160 -56 -69 -117 -144 -135 -165 -17 -22 -45 -56 -62 -75 -62 -72 -239 -288 -256 -312 -9 -13 -28 -40 -42 -59 -14 -19 -43 -64 -66 -100 -22 -36 -45 -72 -50 -80 -32 -49 -149 -258 -185 -331 -46 -90 -94 -210 -140 -344 -15 -44 -33 -93 -40 -110 -83 -188 -182 -534 -226 -790 -17 -102 -6 -278 26 -400 59 -225 123 -304 272 -338 101 -23 181 -7 339 68 233 111 394 273 451 453 23 73 42 220 38 297 -1 22 -7 138 -14 258 -21 391 20 596 144 735 36 40 58 55 103 68 77 24 232 24 286 0 45 -20 124 -98 148 -147 68 -137 91 -215 142 -476 67 -339 69 -362 68 -853 -1 -414 0 -452 19 -544 11 -55 25 -110 30 -123 16 -44 81 -515 88 -648 9 -165 4 -309 -14 -405 -18 -92 -103 -288 -172 -397 -57 -90 -164 -221 -234 -287 -113 -106 -289 -206 -406 -231 -18 -3 -35 -11 -38 -16 -4 -5 -17 -9 -30 -9 -13 0 -59 -11 -102 -24 -43 -13 -96 -27 -118 -30 -225 -36 -310 -48 -447 -61 -89 -9 -164 -17 -167 -19 -3 -2 -31 -7 -62 -10 -51 -6 -130 -28 -250 -71 -79 -28 -229 -186 -288 -303 -66 -130 -109 -394 -97 -581 20 -284 71 -404 267 -632 68 -79 170 -232 223 -335 49 -96 66 -162 66 -253 0 -93 -27 -280 -44 -306 -9 -13 -16 -30 -16 -36 0 -24 -73 -125 -116 -159 -175 -140 -408 -161 -694 -61 -148 51 -355 147 -415 191 -5 4 -37 22 -70 40 -280 154 -448 309 -630 581 -90 134 -140 237 -205 419 -97 275 -261 675 -352 860 -50 102 -120 255 -155 340 -64 153 -103 231 -153 301 -216 308 -298 451 -353 616 -38 115 -59 291 -47 388 13 103 22 137 85 300 29 77 65 178 80 225 43 131 96 260 178 430 41 85 85 178 97 205 46 103 173 348 217 417 13 21 23 42 23 47 0 5 6 14 14 20 14 12 91 -48 348 -271 98 -86 100 -86 119 -67 10 10 19 31 19 46 0 32 -27 58 -255 247 -124 103 -159 137 -158 154 4 37 336 554 538 837 182 255 319 531 393 795 61 215 64 415 10 575 -49 141 -162 262 -285 304 -134 47 -228 31 -536 -90 -146 -57 -166 -68 -242 -126 -39 -29 -87 -56 -105 -59 -19 -4 -57 -18 -84 -32 -46 -24 -51 -25 -89 -11 -75 26 -116 115 -137 304 -27 241 -5 396 86 593 13 29 24 56 24 61 0 5 17 40 39 78 21 37 64 118 96 178 107 204 215 351 408 555 110 115 154 151 166 132 25 -39 196 143 257 273 90 194 124 369 103 524 -7 53 -12 100 -11 104 6 23 -85 296 -128 382 -25 52 -29 73 -14 93 20 29 106 90 146 104 18 6 35 14 38 18 13 17 206 69 302 81 59 7 104 17 101 22 -3 5 3 4 14 -1 10 -6 52 -10 93 -10z"
       id="path8" />
	 <path
		stroke="black"
		stroke-width="350"
       d="M2740 11706 c-8 -8 -65 -18 -103 -17 -9 0 -15 -4 -12 -10 4 -5 0 -9 -9 -9 -8 0 -16 5 -18 11 -3 9 -18 7 -53 -4 -28 -9 -65 -19 -83 -22 -18 -3 -41 -9 -50 -14 -9 -5 -41 -19 -69 -32 -29 -12 -53 -26 -53 -30 0 -4 -10 -10 -22 -13 -13 -3 -52 -30 -88 -59 -46 -38 -66 -61 -70 -82 -5 -27 10 -94 31 -137 5 -9 30 -79 58 -155 38 -106 53 -167 66 -265 18 -136 15 -199 -15 -296 -15 -48 -21 -57 -41 -57 -20 0 -31 -14 -62 -75 -51 -102 -137 -213 -265 -345 -128 -132 -187 -197 -227 -249 -17 -21 -52 -66 -78 -100 -69 -88 -147 -208 -199 -306 -125 -235 -154 -293 -193 -390 -68 -171 -80 -233 -79 -400 3 -230 28 -392 78 -487 41 -81 140 -129 209 -103 81 31 126 55 177 94 30 23 75 55 100 71 25 17 47 33 50 37 3 4 28 17 55 28 28 12 59 25 70 30 99 44 227 88 282 96 27 3 55 8 64 9 9 2 49 -1 88 -5 165 -21 287 -134 332 -307 61 -241 6 -499 -192 -898 -64 -128 -103 -195 -186 -314 -37 -53 -99 -142 -138 -199 -38 -57 -85 -125 -103 -150 -58 -83 -78 -114 -211 -322 -72 -113 -132 -209 -134 -215 -4 -11 -136 101 -144 122 -10 25 -50 15 -61 -15 -14 -40 -2 -60 76 -134 l71 -67 -39 -73 c-22 -40 -44 -80 -50 -88 -20 -32 -200 -385 -200 -394 0 -2 -29 -64 -64 -138 -35 -73 -76 -160 -91 -193 -27 -57 -81 -202 -110 -290 -7 -22 -38 -105 -68 -185 -83 -218 -91 -260 -91 -435 0 -125 4 -165 23 -240 29 -113 104 -290 172 -409 43 -75 180 -282 212 -321 17 -21 77 -117 77 -124 0 -3 8 -22 19 -41 10 -20 38 -83 61 -140 47 -119 67 -163 173 -380 72 -146 177 -404 268 -655 108 -296 154 -402 229 -523 133 -214 346 -443 519 -556 57 -38 120 -75 139 -83 19 -8 43 -23 55 -34 11 -10 53 -35 91 -55 39 -19 78 -41 86 -48 25 -21 119 -62 210 -91 47 -15 99 -36 117 -46 18 -10 56 -23 85 -29 59 -12 83 -18 83 -20 0 -3 64 -10 110 -11 62 -3 225 11 244 21 18 10 89 41 141 63 60 25 166 132 195 195 14 31 30 65 36 75 6 11 12 40 15 65 11 115 14 141 22 199 11 84 7 175 -13 257 -15 65 -92 233 -121 266 -8 8 -35 46 -61 85 -25 38 -76 104 -112 145 -206 234 -261 383 -246 670 16 321 68 466 218 612 21 21 44 38 50 38 7 0 37 20 67 45 30 25 73 50 95 56 22 6 51 15 65 20 14 4 44 11 67 14 36 6 42 4 48 -14 8 -25 25 -18 25 10 0 10 3 19 8 19 20 1 322 30 357 35 349 47 503 83 675 158 133 57 238 125 339 220 34 33 173 200 179 217 7 19 28 40 39 40 5 0 15 17 22 38 8 20 19 44 26 52 23 29 65 109 65 123 0 9 3 17 8 19 18 7 63 140 78 228 19 113 23 458 6 565 -6 39 -16 111 -23 160 -27 217 -41 295 -70 414 l-32 126 -2 500 -2 500 -31 165 c-51 276 -89 442 -115 510 -31 84 -83 186 -114 227 -27 35 -123 103 -146 103 -8 0 -30 11 -49 24 -35 23 -80 28 -107 12 -6 -4 -28 -7 -49 -5 -60 3 -202 -26 -202 -42 0 -5 -8 -9 -19 -9 -30 0 -115 -96 -155 -176 -21 -42 -47 -111 -58 -153 -27 -105 -34 -330 -18 -621 14 -269 7 -358 -36 -466 -67 -167 -252 -317 -485 -393 -74 -25 -127 -26 -197 -6 -89 27 -141 88 -183 215 -61 188 -64 363 -9 590 10 41 21 93 25 115 12 74 87 318 130 424 23 58 53 138 65 176 52 162 142 359 235 515 18 30 58 98 89 150 90 153 192 292 330 449 94 107 211 245 246 291 19 24 42 52 50 61 14 15 43 51 152 189 85 108 168 218 168 224 0 2 19 33 43 68 44 66 177 293 177 303 0 3 13 33 30 67 16 33 27 65 23 71 -3 5 -1 7 4 4 6 -4 13 1 16 11 3 9 21 60 41 114 19 53 37 107 38 120 2 12 7 28 11 34 3 6 9 38 13 70 4 33 10 64 14 69 7 10 27 173 34 275 7 105 -17 267 -53 363 -5 12 -9 25 -10 30 0 4 -22 46 -47 95 -52 99 -144 232 -160 232 -6 0 -26 18 -45 40 -19 22 -38 40 -42 40 -5 0 -18 10 -29 23 -11 12 -17 15 -13 7 5 -12 4 -12 -7 1 -7 9 -22 19 -34 23 -11 3 -29 14 -40 24 -27 23 -79 52 -96 52 -7 0 -21 8 -30 19 -9 10 -40 26 -69 36 -30 10 -58 21 -63 26 -6 5 -18 9 -27 9 -10 0 -20 6 -23 13 -4 9 -7 9 -12 0 -5 -10 -25 -4 -149 48 -11 4 -33 9 -50 11 -16 2 -33 7 -36 11 -3 5 -21 12 -40 17 -103 27 -126 33 -144 40 -11 5 -41 14 -68 20 -26 7 -50 17 -53 22 -3 4 -10 6 -15 3 -5 -4 -9 -1 -9 5 0 7 -7 10 -15 6 -8 -3 -15 -2 -15 2 0 4 -23 8 -51 9 -29 1 -62 9 -77 19 -20 13 -50 18 -110 20 -47 1 -88 7 -97 14 -8 7 -22 9 -32 6 -9 -4 -20 -1 -24 6 -5 8 -12 9 -21 2 -7 -5 -24 -9 -38 -8 -51 4 -90 11 -96 17 -3 3 -12 3 -20 0 -8 -3 -22 -2 -31 2 -10 4 -135 9 -278 10 -320 4 -441 12 -459 31 -11 10 -15 11 -18 2 -4 -10 -30 -8 -114 5 -60 10 -110 22 -112 27 -2 6 -11 6 -23 -1 -12 -6 -34 -7 -52 -3 -47 10 -176 10 -187 0z m160 -54 c70 0 166 -9 180 -17 3 -2 37 -7 75 -10 39 -4 93 -9 120 -12 42 -4 139 -9 275 -14 14 -1 41 -1 60 0 19 1 53 0 75 -2 22 -2 51 0 64 5 14 5 27 5 30 -1 3 -5 59 -12 124 -16 96 -6 117 -5 117 6 1 10 4 8 11 -3 7 -12 22 -18 47 -18 50 0 255 -35 354 -60 27 -7 57 -10 68 -7 11 3 18 2 15 -3 -6 -9 -11 -7 215 -66 96 -24 186 -49 200 -54 14 -6 34 -11 45 -13 53 -8 201 -66 300 -117 149 -77 179 -94 183 -102 2 -5 8 -8 13 -8 14 0 153 -120 191 -165 51 -60 108 -135 108 -142 0 -8 52 -115 60 -123 7 -7 27 -66 44 -137 57 -223 -3 -645 -130 -920 -15 -32 -37 -81 -49 -109 -13 -27 -44 -85 -69 -128 -25 -43 -46 -80 -46 -82 0 -11 -177 -273 -231 -342 -33 -43 -72 -92 -87 -111 -15 -19 -74 -91 -131 -160 -56 -69 -117 -144 -135 -165 -17 -22 -45 -56 -62 -75 -62 -72 -239 -288 -256 -312 -9 -13 -28 -40 -42 -59 -14 -19 -43 -64 -66 -100 -22 -36 -45 -72 -50 -80 -32 -49 -149 -258 -185 -331 -46 -90 -94 -210 -140 -344 -15 -44 -33 -93 -40 -110 -83 -188 -182 -534 -226 -790 -17 -102 -6 -278 26 -400 59 -225 123 -304 272 -338 101 -23 181 -7 339 68 233 111 394 273 451 453 23 73 42 220 38 297 -1 22 -7 138 -14 258 -21 391 20 596 144 735 36 40 58 55 103 68 77 24 232 24 286 0 45 -20 124 -98 148 -147 68 -137 91 -215 142 -476 67 -339 69 -362 68 -853 -1 -414 0 -452 19 -544 11 -55 25 -110 30 -123 16 -44 81 -515 88 -648 9 -165 4 -309 -14 -405 -18 -92 -103 -288 -172 -397 -57 -90 -164 -221 -234 -287 -113 -106 -289 -206 -406 -231 -18 -3 -35 -11 -38 -16 -4 -5 -17 -9 -30 -9 -13 0 -59 -11 -102 -24 -43 -13 -96 -27 -118 -30 -225 -36 -310 -48 -447 -61 -89 -9 -164 -17 -167 -19 -3 -2 -31 -7 -62 -10 -51 -6 -130 -28 -250 -71 -79 -28 -229 -186 -288 -303 -66 -130 -109 -394 -97 -581 20 -284 71 -404 267 -632 68 -79 170 -232 223 -335 49 -96 66 -162 66 -253 0 -93 -27 -280 -44 -306 -9 -13 -16 -30 -16 -36 0 -24 -73 -125 -116 -159 -175 -140 -408 -161 -694 -61 -148 51 -355 147 -415 191 -5 4 -37 22 -70 40 -280 154 -448 309 -630 581 -90 134 -140 237 -205 419 -97 275 -261 675 -352 860 -50 102 -120 255 -155 340 -64 153 -103 231 -153 301 -216 308 -298 451 -353 616 -38 115 -59 291 -47 388 13 103 22 137 85 300 29 77 65 178 80 225 43 131 96 260 178 430 41 85 85 178 97 205 46 103 173 348 217 417 13 21 23 42 23 47 0 5 6 14 14 20 14 12 91 -48 348 -271 98 -86 100 -86 119 -67 10 10 19 31 19 46 0 32 -27 58 -255 247 -124 103 -159 137 -158 154 4 37 336 554 538 837 182 255 319 531 393 795 61 215 64 415 10 575 -49 141 -162 262 -285 304 -134 47 -228 31 -536 -90 -146 -57 -166 -68 -242 -126 -39 -29 -87 -56 -105 -59 -19 -4 -57 -18 -84 -32 -46 -24 -51 -25 -89 -11 -75 26 -116 115 -137 304 -27 241 -5 396 86 593 13 29 24 56 24 61 0 5 17 40 39 78 21 37 64 118 96 178 107 204 215 351 408 555 110 115 154 151 166 132 25 -39 196 143 257 273 90 194 124 369 103 524 -7 53 -12 100 -11 104 6 23 -85 296 -128 382 -25 52 -29 73 -14 93 20 29 106 90 146 104 18 6 35 14 38 18 13 17 206 69 302 81 59 7 104 17 101 22 -3 5 3 4 14 -1 10 -6 52 -10 93 -10z"
       id="path9" />
  </g>
</svg>
